<svg width="318" height="137" viewBox="0 0 318 137" fill="none" xmlns="http://www.w3.org/2000/svg">
<g filter="url(#filter0_d)">
<rect y="44" width="310" height="85" rx="10" fill="#ABAF2C"/>
</g>
<g filter="url(#filter1_d)">
<circle cx="155" cy="32" r="30" fill="white"/>
</g>
<path d="M140 31.9979C140 30.6568 140.379 29.651 141.136 28.9804C141.894 28.2428 142.967 27.9076 144.292 27.9076C145.113 27.9076 145.807 28.0417 146.375 28.3099C146.88 28.5781 147.196 28.9134 147.196 29.4498C147.196 29.718 147.133 29.9192 147.007 30.1203C146.88 30.3215 146.754 30.5227 146.691 30.5227C146.438 30.3886 146.186 30.3215 145.87 30.1874C145.555 30.1203 145.176 30.0533 144.734 30.0533C143.156 30.0533 142.399 30.925 142.399 32.6684V38.8374H140.126C140 38.9045 140 31.9979 140 31.9979ZM155.023 35.6859H151.173C150.1 35.6859 149.342 35.4847 148.774 35.1494C148.206 34.7471 147.953 34.1436 147.953 33.339C147.953 32.7355 148.08 32.0649 148.332 31.3944C148.585 30.7238 148.9 30.0533 149.342 29.3827C149.784 28.7122 150.226 28.1087 150.794 27.4382C151.362 26.8347 151.93 26.2983 152.498 25.8289C153.066 25.3595 153.698 25.0242 154.266 24.6889C154.834 24.4207 155.402 24.2866 155.844 24.2866C156.286 24.2866 156.664 24.3537 156.917 24.4207C157.169 24.5548 157.296 24.6219 157.359 24.6219V33.4731H157.99C158.81 33.4731 159.189 33.8083 159.189 34.5459C159.189 34.8141 159.126 35.0824 159.063 35.2835C159 35.4847 158.937 35.6188 158.874 35.6859H157.359V38.9045H155.086L155.023 35.6859ZM155.023 33.4731V26.7676C154.581 27.0358 154.076 27.3711 153.508 27.8405C152.94 28.3099 152.435 28.8463 151.993 29.3827C151.551 29.9192 151.11 30.5227 150.794 31.1262C150.478 31.7296 150.352 32.199 150.352 32.6684C150.352 33.0037 150.478 33.2719 150.731 33.339C150.983 33.406 151.299 33.4731 151.678 33.4731H155.023ZM160.18 36.7902C160.369 36.6562 160.684 36.4554 161.061 36.1205L162.383 35.1161C162.887 34.7143 163.328 34.3795 163.831 33.9777C164.335 33.5759 164.712 33.2411 165.027 32.9062C165.783 32.1696 166.412 31.5 166.79 30.8304C167.23 30.1607 167.419 29.4911 167.419 28.6875C167.419 28.3527 167.356 28.0179 167.23 27.75C167.104 27.4152 166.916 27.1473 166.727 26.9464C166.475 26.6786 166.223 26.5446 165.845 26.3437C165.468 26.2098 165.027 26.1429 164.524 26.1429C164.02 26.1429 163.579 26.2098 163.202 26.3437C162.824 26.4777 162.509 26.6786 162.257 26.8795C162.006 27.0804 161.817 27.2812 161.691 27.5491C161.565 27.75 161.439 27.9509 161.376 28.0848C161.25 28.0848 161.124 28.0179 160.998 27.9509C160.873 27.8839 160.747 27.817 160.621 27.683C160.495 27.5491 160.369 27.4152 160.306 27.2812C160.243 27.1473 160.18 26.9464 160.18 26.8125C160.18 26.6116 160.243 26.4107 160.306 26.2098C160.369 26.0089 160.495 25.875 160.558 25.6741C160.621 25.6071 160.747 25.4062 160.936 25.2054C161.124 25.0045 161.376 24.8036 161.754 24.6696C162.069 24.4687 162.509 24.3348 163.013 24.2009C163.516 24.067 164.083 24 164.775 24C165.594 24 166.349 24.1339 166.979 24.3348C167.608 24.6027 168.175 24.8705 168.615 25.2723C169.056 25.6741 169.371 26.1429 169.622 26.7455C169.874 27.2812 169.937 27.8839 169.937 28.5536C169.937 29.0223 169.874 29.4911 169.748 29.9598C169.622 30.4286 169.496 30.7634 169.308 31.1652C169.119 31.567 168.93 31.8348 168.741 32.1696C168.489 32.5045 168.3 32.7723 168.049 33.0402C167.797 33.308 167.482 33.6429 167.104 33.9777C166.727 34.3795 166.286 34.7143 165.845 35.1161C165.405 35.5179 165.027 35.8527 164.649 36.1205C164.272 36.4554 163.957 36.6562 163.768 36.7902H170V39H160.18V36.7902Z" fill="#ABAF2C"/>
<path d="M66.8359 95V82.2031H70.7734C71.8984 82.2031 72.9033 82.458 73.7881 82.9678C74.6787 83.4717 75.373 84.1924 75.8711 85.1299C76.3691 86.0615 76.6182 87.1221 76.6182 88.3115V88.9004C76.6182 90.0898 76.3721 91.1475 75.8799 92.0732C75.3936 92.999 74.7051 93.7168 73.8145 94.2266C72.9238 94.7363 71.9189 94.9941 70.7998 95H66.8359ZM69.4727 84.3389V92.8818H70.7471C71.7783 92.8818 72.5664 92.5449 73.1113 91.8711C73.6562 91.1973 73.9346 90.2334 73.9463 88.9795V88.3027C73.9463 87.002 73.6768 86.0176 73.1377 85.3496C72.5986 84.6758 71.8105 84.3389 70.7734 84.3389H69.4727ZM89.0547 88.8916C89.0547 90.1514 88.832 91.2559 88.3867 92.2051C87.9414 93.1543 87.3027 93.8867 86.4707 94.4023C85.6445 94.918 84.6953 95.1758 83.623 95.1758C82.5625 95.1758 81.6162 94.9209 80.7842 94.4111C79.9521 93.9014 79.3076 93.1748 78.8506 92.2314C78.3936 91.2822 78.1621 90.1924 78.1562 88.9619V88.3291C78.1562 87.0693 78.3818 85.9619 78.833 85.0068C79.29 84.0459 79.9316 83.3105 80.7578 82.8008C81.5898 82.2852 82.5391 82.0273 83.6055 82.0273C84.6719 82.0273 85.6182 82.2852 86.4443 82.8008C87.2764 83.3105 87.918 84.0459 88.3691 85.0068C88.8262 85.9619 89.0547 87.0664 89.0547 88.3203V88.8916ZM86.3828 88.3115C86.3828 86.9697 86.1426 85.9502 85.6621 85.2529C85.1816 84.5557 84.4961 84.207 83.6055 84.207C82.7207 84.207 82.0381 84.5527 81.5576 85.2441C81.0771 85.9297 80.834 86.9375 80.8281 88.2676V88.8916C80.8281 90.1982 81.0684 91.2119 81.5488 91.9326C82.0293 92.6533 82.7207 93.0137 83.623 93.0137C84.5078 93.0137 85.1875 92.668 85.6621 91.9766C86.1367 91.2793 86.377 90.2656 86.3828 88.9355V88.3115ZM100.938 91.3086L102.66 82.2031H105.288L102.449 95H99.7949L97.7119 86.4395L95.6289 95H92.9746L90.1357 82.2031H92.7637L94.4951 91.291L96.6045 82.2031H98.8369L100.938 91.3086ZM117.127 95H114.49L109.357 86.5801V95H106.721V82.2031H109.357L114.499 90.6406V82.2031H117.127V95ZM122.066 92.8818H127.665V95H119.43V82.2031H122.066V92.8818ZM139.135 88.8916C139.135 90.1514 138.912 91.2559 138.467 92.2051C138.021 93.1543 137.383 93.8867 136.551 94.4023C135.725 94.918 134.775 95.1758 133.703 95.1758C132.643 95.1758 131.696 94.9209 130.864 94.4111C130.032 93.9014 129.388 93.1748 128.931 92.2314C128.474 91.2822 128.242 90.1924 128.236 88.9619V88.3291C128.236 87.0693 128.462 85.9619 128.913 85.0068C129.37 84.0459 130.012 83.3105 130.838 82.8008C131.67 82.2852 132.619 82.0273 133.686 82.0273C134.752 82.0273 135.698 82.2852 136.524 82.8008C137.356 83.3105 137.998 84.0459 138.449 85.0068C138.906 85.9619 139.135 87.0664 139.135 88.3203V88.8916ZM136.463 88.3115C136.463 86.9697 136.223 85.9502 135.742 85.2529C135.262 84.5557 134.576 84.207 133.686 84.207C132.801 84.207 132.118 84.5527 131.638 85.2441C131.157 85.9297 130.914 86.9375 130.908 88.2676V88.8916C130.908 90.1982 131.148 91.2119 131.629 91.9326C132.109 92.6533 132.801 93.0137 133.703 93.0137C134.588 93.0137 135.268 92.668 135.742 91.9766C136.217 91.2793 136.457 90.2656 136.463 88.9355V88.3115ZM148.082 92.3633H143.459L142.58 95H139.776L144.54 82.2031H146.983L151.773 95H148.97L148.082 92.3633ZM144.171 90.2275H147.37L145.762 85.4375L144.171 90.2275ZM152.969 95V82.2031H156.906C158.031 82.2031 159.036 82.458 159.921 82.9678C160.812 83.4717 161.506 84.1924 162.004 85.1299C162.502 86.0615 162.751 87.1221 162.751 88.3115V88.9004C162.751 90.0898 162.505 91.1475 162.013 92.0732C161.526 92.999 160.838 93.7168 159.947 94.2266C159.057 94.7363 158.052 94.9941 156.933 95H152.969ZM155.605 84.3389V92.8818H156.88C157.911 92.8818 158.699 92.5449 159.244 91.8711C159.789 91.1973 160.067 90.2334 160.079 88.9795V88.3027C160.079 87.002 159.81 86.0176 159.271 85.3496C158.731 84.6758 157.943 84.3389 156.906 84.3389H155.605ZM169.158 95V82.2031H173.096C174.221 82.2031 175.226 82.458 176.11 82.9678C177.001 83.4717 177.695 84.1924 178.193 85.1299C178.691 86.0615 178.94 87.1221 178.94 88.3115V88.9004C178.94 90.0898 178.694 91.1475 178.202 92.0732C177.716 92.999 177.027 93.7168 176.137 94.2266C175.246 94.7363 174.241 94.9941 173.122 95H169.158ZM171.795 84.3389V92.8818H173.069C174.101 92.8818 174.889 92.5449 175.434 91.8711C175.979 91.1973 176.257 90.2334 176.269 88.9795V88.3027C176.269 87.002 175.999 86.0176 175.46 85.3496C174.921 84.6758 174.133 84.3389 173.096 84.3389H171.795ZM187.896 92.3633H183.273L182.395 95H179.591L184.354 82.2031H186.798L191.588 95H188.784L187.896 92.3633ZM183.985 90.2275H187.185L185.576 85.4375L183.985 90.2275ZM201.361 84.3389H197.441V95H194.805V84.3389H190.938V82.2031H201.361V84.3389ZM209.043 92.3633H204.42L203.541 95H200.737L205.501 82.2031H207.944L212.734 95H209.931L209.043 92.3633ZM205.132 90.2275H208.331L206.723 85.4375L205.132 90.2275ZM220.565 91.6426C220.565 91.1445 220.39 90.7637 220.038 90.5C219.687 90.2305 219.054 89.9492 218.14 89.6562C217.226 89.3574 216.502 89.0645 215.969 88.7773C214.516 87.9922 213.789 86.9346 213.789 85.6045C213.789 84.9131 213.982 84.2979 214.369 83.7588C214.762 83.2139 215.321 82.7891 216.048 82.4844C216.78 82.1797 217.601 82.0273 218.509 82.0273C219.423 82.0273 220.237 82.1943 220.952 82.5283C221.667 82.8564 222.221 83.3223 222.613 83.9258C223.012 84.5293 223.211 85.2148 223.211 85.9824H220.574C220.574 85.3965 220.39 84.9424 220.021 84.6201C219.651 84.292 219.133 84.1279 218.465 84.1279C217.82 84.1279 217.319 84.2656 216.962 84.541C216.604 84.8105 216.426 85.168 216.426 85.6133C216.426 86.0293 216.634 86.3779 217.05 86.6592C217.472 86.9404 218.09 87.2041 218.904 87.4502C220.404 87.9014 221.497 88.4609 222.183 89.1289C222.868 89.7969 223.211 90.6289 223.211 91.625C223.211 92.7324 222.792 93.6025 221.954 94.2354C221.116 94.8623 219.988 95.1758 218.57 95.1758C217.586 95.1758 216.689 94.9971 215.881 94.6396C215.072 94.2764 214.454 93.7812 214.026 93.1543C213.604 92.5273 213.394 91.8008 213.394 90.9746H216.039C216.039 92.3867 216.883 93.0928 218.57 93.0928C219.197 93.0928 219.687 92.9668 220.038 92.7148C220.39 92.457 220.565 92.0996 220.565 91.6426ZM232.703 89.4541H227.641V92.8818H233.582V95H225.004V82.2031H233.564V84.3389H227.641V87.3887H232.703V89.4541ZM244.938 84.3389H241.018V95H238.381V84.3389H234.514V82.2031H244.938V84.3389Z" fill="white"/>
<defs>
<filter id="filter0_d" x="0" y="44" width="318" height="93" filterUnits="userSpaceOnUse" color-interpolation-filters="sRGB">
<feFlood flood-opacity="0" result="BackgroundImageFix"/>
<feColorMatrix in="SourceAlpha" type="matrix" values="0 0 0 0 0 0 0 0 0 0 0 0 0 0 0 0 0 0 127 0"/>
<feOffset dx="4" dy="4"/>
<feGaussianBlur stdDeviation="2"/>
<feColorMatrix type="matrix" values="0 0 0 0 0 0 0 0 0 0 0 0 0 0 0 0 0 0 0.25 0"/>
<feBlend mode="normal" in2="BackgroundImageFix" result="effect1_dropShadow"/>
<feBlend mode="normal" in="SourceGraphic" in2="effect1_dropShadow" result="shape"/>
</filter>
<filter id="filter1_d" x="123" y="0" width="68" height="68" filterUnits="userSpaceOnUse" color-interpolation-filters="sRGB">
<feFlood flood-opacity="0" result="BackgroundImageFix"/>
<feColorMatrix in="SourceAlpha" type="matrix" values="0 0 0 0 0 0 0 0 0 0 0 0 0 0 0 0 0 0 127 0"/>
<feOffset dx="2" dy="2"/>
<feGaussianBlur stdDeviation="2"/>
<feColorMatrix type="matrix" values="0 0 0 0 0 0 0 0 0 0 0 0 0 0 0 0 0 0 0.25 0"/>
<feBlend mode="normal" in2="BackgroundImageFix" result="effect1_dropShadow"/>
<feBlend mode="normal" in="SourceGraphic" in2="effect1_dropShadow" result="shape"/>
</filter>
</defs>
</svg>
