<svg width="225" height="225" viewBox="0 0 225 225" fill="none" xmlns="http://www.w3.org/2000/svg">
<path d="M112.641 67.7728C120.018 67.7961 127.274 69.6434 133.764 73.1503C140.254 76.6572 145.775 81.7148 149.837 87.8725C153.898 94.0302 156.374 101.097 157.043 108.443C157.712 115.789 156.554 123.187 153.672 129.977L133.322 121.263C134.763 117.84 135.337 114.114 134.995 110.416C134.652 106.718 133.403 103.161 131.358 100.061C129.313 96.9609 126.535 94.4127 123.271 92.642C120.006 90.8713 116.355 89.9328 112.641 89.9096V67.7728Z" fill="#9E0142" fill-opacity="0.6"/>
<path d="M153.56 130.237C150.639 137 146.092 142.937 140.323 147.52C134.554 152.103 127.743 155.191 120.494 156.507C113.245 157.824 105.783 157.33 98.771 155.068C91.759 152.807 85.4143 148.848 80.3007 143.544L96.2854 128.23C98.8683 130.892 102.067 132.878 105.599 134.011C109.131 135.144 112.888 135.39 116.538 134.727C120.187 134.064 123.618 132.513 126.525 130.21C129.433 127.907 131.729 124.923 133.211 121.523L153.56 130.237Z" fill="#E85E49" fill-opacity="0.6"/>
<path d="M80.1053 143.34C75.5337 138.538 72.0868 132.78 70.0142 126.482C67.9416 120.184 67.295 113.504 68.1213 106.926C68.9476 100.347 71.226 94.0349 74.7918 88.4452C78.3576 82.8555 83.1214 78.1285 88.7386 74.6062L100.44 93.3979C97.6179 95.1794 95.226 97.5638 93.4357 100.38C91.6454 103.196 90.5012 106.374 90.0853 109.685C89.6695 112.996 89.9922 116.357 91.0305 119.529C92.0687 122.7 93.7967 125.602 96.0901 128.026L80.1053 143.34Z" fill="#FDBE70" fill-opacity="0.6"/>
<path d="M88.9783 74.457C93.0416 71.9446 97.4812 70.0995 102.128 68.9917L107.194 90.5412C104.894 91.097 102.695 92.0106 100.679 93.2487L88.9783 74.457Z" fill="#FBF8B0" fill-opacity="0.6"/>
<path d="M102.403 68.927C105.599 68.1866 108.866 67.7999 112.146 67.7739L112.251 89.9105C110.641 89.9282 109.038 90.118 107.468 90.4766L102.403 68.927Z" fill="#BEE5A0" fill-opacity="0.6"/>
<path d="M112.354 67.7728C112.38 67.7727 112.407 67.7726 112.433 67.7726L112.446 89.9092L112.354 67.7728Z" fill="#56ADAE" fill-opacity="0.6"/>
<path d="M112.641 45.1818C126.727 45.2114 140.449 49.6587 151.874 57.8974C163.299 66.1362 171.852 77.7513 176.329 91.107L155.325 98.0977C152.316 89.152 146.582 81.3729 138.927 75.8527C131.271 70.3324 122.079 67.348 112.641 67.3185V45.1818Z" fill="#9E0142" fill-opacity="0.6"/>
<path d="M176.418 91.3749C179.061 99.3714 180.18 107.793 179.716 116.202L157.616 114.938C157.919 109.325 157.172 103.705 155.414 98.3656L176.418 91.3749Z" fill="#9E0142" fill-opacity="0.6"/>
<path d="M179.7 116.484C179.256 123.978 177.562 131.345 174.687 138.279L154.255 129.759C156.168 125.132 157.298 120.218 157.6 115.22L179.7 116.484Z" fill="#9E0142" fill-opacity="0.6"/>
<path d="M174.581 138.534C174.533 138.648 174.484 138.762 174.436 138.876L154.086 130.162C154.108 130.113 154.128 130.063 154.149 130.014L174.581 138.534Z" fill="#9E0142" fill-opacity="0.6"/>
<path d="M174.327 139.13C168.874 151.79 159.666 162.472 147.947 169.73C136.227 176.989 122.562 180.475 108.798 179.716L110.062 157.616C119.284 158.114 128.438 155.774 136.29 150.911C144.143 146.048 150.316 138.895 153.978 130.415L174.327 139.13Z" fill="#E85E49" fill-opacity="0.6"/>
<path d="M108.516 179.7C96.6527 178.997 85.1871 175.166 75.2842 168.596L87.5607 150.175C94.1855 154.56 101.849 157.121 109.78 157.6L108.516 179.7Z" fill="#E85E49" fill-opacity="0.6"/>
<path d="M75.0492 168.439C71.2632 165.904 67.7444 162.992 64.5468 159.747L80.3481 144.243C82.4746 146.397 84.8123 148.332 87.3257 150.019L75.0492 168.439Z" fill="#E85E49" fill-opacity="0.6"/>
<path d="M64.3772 159.574C64.3122 159.507 64.2473 159.441 64.1825 159.374L80.0941 143.984C80.1222 144.013 80.1503 144.042 80.1785 144.071L64.3772 159.574Z" fill="#E85E49" fill-opacity="0.6"/>
<path d="M64.0657 159.253C64.0226 159.209 63.9796 159.164 63.9367 159.119L79.9213 143.805C79.94 143.825 79.9586 143.844 79.9773 143.863L64.0657 159.253Z" fill="#E85E49" fill-opacity="0.6"/>
<path d="M63.7926 158.969C57.1829 152.041 52.1272 143.782 48.9632 134.745C45.7991 125.707 44.5994 116.099 45.4442 106.561L67.4904 108.56C66.9314 114.947 67.7379 121.379 69.8563 127.43C71.9747 133.481 75.3566 139.011 79.7773 143.655L63.7926 158.969Z" fill="#FDBE70" fill-opacity="0.6"/>
<path d="M45.4697 106.279C47.0695 89.041 55.2491 73.0815 68.3093 61.7168L82.8057 78.4466C74.0723 86.0621 68.5985 96.742 67.5159 108.279L45.4697 106.279Z" fill="#FDBE70" fill-opacity="0.6"/>
<path d="M68.5227 61.5319C70.9594 59.4294 73.5438 57.5043 76.2559 55.7715L88.1351 74.4509C86.3421 75.599 84.6326 76.8724 83.0192 78.2617L68.5227 61.5319Z" fill="#FDBE70" fill-opacity="0.6"/>
<path d="M76.4317 55.6596C76.4841 55.6264 76.5365 55.5933 76.5889 55.5602L88.379 74.2958C88.3563 74.3101 88.3336 74.3245 88.3109 74.3389L76.4317 55.6596Z" fill="#FDBE70" fill-opacity="0.6"/>
<path d="M76.7027 55.4885C76.7552 55.4556 76.8078 55.4227 76.8604 55.3898L88.5612 74.1813C88.5384 74.1956 88.5156 74.2099 88.4928 74.2241L76.7027 55.4885Z" fill="#FDBE70" fill-opacity="0.6"/>
<path d="M77.0373 55.2798C82.1855 52.0892 87.7407 49.6079 93.5525 47.9032L99.7386 69.158C95.8688 70.2973 92.1692 71.9498 88.7381 74.0714L77.0373 55.2798Z" fill="#FBF8B0" fill-opacity="0.6"/>
<path d="M93.8237 47.8243C94.4516 47.643 95.0821 47.4708 95.715 47.3079L101.19 68.7569C100.795 68.859 100.402 68.9664 100.01 69.0791L93.8237 47.8243Z" fill="#FBF8B0" fill-opacity="0.6"/>
<path d="M95.9886 47.238C96.2598 47.1694 96.5314 47.1025 96.8034 47.0372L101.92 68.5745C101.767 68.6112 101.615 68.6487 101.463 68.687L95.9886 47.238Z" fill="#FBF8B0" fill-opacity="0.6"/>
<path d="M96.9734 46.9967C97.0036 46.9896 97.0337 46.9825 97.0639 46.9753L102.129 68.5247C102.116 68.5278 102.103 68.5309 102.09 68.5339L96.9734 46.9967Z" fill="#FBF8B0" fill-opacity="0.6"/>
<path d="M97.2341 46.9355C102.037 45.8173 106.947 45.2301 111.878 45.1846L112.036 67.3207C108.758 67.3543 105.493 67.7447 102.299 68.4849L97.2341 46.9355Z" fill="#BEE5A0" fill-opacity="0.6"/>
<path d="M112.053 45.1832C112.084 45.183 112.115 45.1828 112.146 45.1826L112.251 67.319C112.238 67.3191 112.224 67.3191 112.211 67.3192L112.053 45.1832Z" fill="#BEE5A0" fill-opacity="0.6"/>
<path d="M112.247 45.1821C112.309 45.1819 112.371 45.1818 112.433 45.1817V67.3183C112.406 67.3184 112.379 67.3184 112.352 67.3185L112.247 45.1821Z" fill="#56ADAE" fill-opacity="0.6"/>
<path d="M112.641 22.5909C135.796 22.6273 158.045 31.5957 174.752 47.6279L159.4 63.5761C146.817 51.5142 130.071 44.7639 112.641 44.7276V22.5909Z" fill="#9E0142" fill-opacity="0.6"/>
<path d="M174.955 47.8237C180.797 53.4649 185.848 59.8716 189.969 66.8689L170.878 78.0738C167.78 72.821 163.988 68.0102 159.603 63.7719L174.955 47.8237Z" fill="#9E0142" fill-opacity="0.6"/>
<path d="M190.112 67.1125C192.803 71.7137 195.079 76.5452 196.914 81.5497L176.118 89.1374C174.741 85.3875 173.035 81.7668 171.021 78.3174L190.112 67.1125Z" fill="#9E0142" fill-opacity="0.6"/>
<path d="M197.011 81.8149C197.149 82.1958 197.285 82.5776 197.418 82.9602L176.499 90.2004C176.406 89.9339 176.311 89.668 176.215 89.4026L197.011 81.8149Z" fill="#9E0142" fill-opacity="0.6"/>
<path d="M197.51 83.2271C197.596 83.4753 197.68 83.7238 197.763 83.9728L176.76 90.9635C176.704 90.7979 176.648 90.6325 176.591 90.4672L197.51 83.2271Z" fill="#9E0142" fill-opacity="0.6"/>
<path d="M197.853 84.2407C201.353 94.8125 202.859 105.943 202.293 117.064L180.187 115.906C180.608 107.546 179.476 99.1796 176.849 91.2315L197.853 84.2407Z" fill="#9E0142" fill-opacity="0.6"/>
<path d="M202.284 117.239C202.282 117.288 202.279 117.337 202.276 117.386L180.173 116.174C180.175 116.143 180.176 116.112 180.178 116.081L202.284 117.239Z" fill="#9E0142" fill-opacity="0.6"/>
<path d="M202.273 117.453C202.27 117.502 202.267 117.55 202.264 117.599L180.164 116.335C180.166 116.304 180.167 116.273 180.169 116.242L202.273 117.453Z" fill="#9E0142" fill-opacity="0.6"/>
<path d="M202.254 117.774C202.005 122.025 201.453 126.253 200.604 130.426L178.919 125.979C179.553 122.855 179.965 119.691 180.154 116.51L202.254 117.774Z" fill="#9E0142" fill-opacity="0.6"/>
<path d="M200.547 130.703C199.916 133.755 199.127 136.772 198.183 139.742L177.097 133.001C177.801 130.784 178.39 128.533 178.862 126.255L200.547 130.703Z" fill="#9E0142" fill-opacity="0.6"/>
<path d="M198.097 140.011C197.515 141.822 196.875 143.615 196.179 145.387L175.589 137.257C176.104 135.943 176.579 134.614 177.011 133.27L198.097 140.011Z" fill="#9E0142" fill-opacity="0.6"/>
<path d="M196.075 145.649C195.899 146.092 195.72 146.534 195.537 146.974L175.106 138.454C175.235 138.144 175.361 137.832 175.485 137.52L196.075 145.649Z" fill="#9E0142" fill-opacity="0.6"/>
<path d="M195.457 147.166C195.42 147.257 195.382 147.347 195.344 147.437L174.953 138.82C174.977 138.762 175.002 138.704 175.026 138.646L195.457 147.166Z" fill="#9E0142" fill-opacity="0.6"/>
<path d="M195.304 147.53C195.285 147.575 195.266 147.62 195.247 147.665L174.877 138.999C174.889 138.971 174.902 138.942 174.914 138.913L195.304 147.53Z" fill="#9E0142" fill-opacity="0.6"/>
<path d="M195.221 147.727C195.202 147.772 195.182 147.817 195.163 147.862L174.814 139.148C174.826 139.119 174.838 139.09 174.851 139.061L195.221 147.727Z" fill="#9E0142" fill-opacity="0.6"/>
<path d="M195.094 148.023C186.849 167.194 172.191 182.9 153.634 192.448L143.537 172.748C157.501 165.555 168.532 153.734 174.745 139.308L195.094 148.023Z" fill="#E85E49" fill-opacity="0.6"/>
<path d="M153.383 192.577C139.67 199.578 124.389 202.94 109.004 202.341L109.9 180.223C121.473 180.667 132.968 178.138 143.286 172.877L153.383 192.577Z" fill="#E85E49" fill-opacity="0.6"/>
<path d="M108.722 202.33C108.389 202.316 108.055 202.3 107.722 202.282L108.933 180.179C109.161 180.191 109.389 180.201 109.618 180.211L108.722 202.33Z" fill="#E85E49" fill-opacity="0.6"/>
<path d="M107.547 202.273C107.498 202.27 107.45 202.267 107.401 202.264L108.665 180.164C108.696 180.166 108.727 180.167 108.758 180.169L107.547 202.273Z" fill="#E85E49" fill-opacity="0.6"/>
<path d="M107.226 202.254C91.4943 201.33 76.2815 196.287 63.1128 187.63L75.3015 169.151C85.2116 175.659 96.6553 179.452 108.49 180.154L107.226 202.254Z" fill="#E85E49" fill-opacity="0.6"/>
<path d="M62.9388 187.516C62.8571 187.462 62.7756 187.408 62.6941 187.353L74.9706 168.933C75.0229 168.968 75.0751 169.002 75.1275 169.037L62.9388 187.516Z" fill="#E85E49" fill-opacity="0.6"/>
<path d="M62.5207 187.238C59.5742 185.267 56.7468 183.124 54.0533 180.82L68.47 164.022C70.4835 165.742 72.5963 167.344 74.7973 168.817L62.5207 187.238Z" fill="#E85E49" fill-opacity="0.6"/>
<path d="M53.8391 180.636C51.9642 179.022 50.1567 177.331 48.4213 175.568L64.2225 160.065C65.5151 161.377 66.8606 162.635 68.2557 163.838L53.8391 180.636Z" fill="#E85E49" fill-opacity="0.6"/>
<path d="M48.2753 175.419C48.2068 175.349 48.1384 175.279 48.0702 175.209L63.9451 159.781C63.9888 159.826 64.0326 159.871 64.0765 159.916L48.2753 175.419Z" fill="#E85E49" fill-opacity="0.6"/>
<path d="M47.9999 175.137C47.9658 175.102 47.9317 175.067 47.8977 175.032L63.8093 159.642C63.8311 159.664 63.8529 159.687 63.8747 159.709L47.9999 175.137Z" fill="#E85E49" fill-opacity="0.6"/>
<path d="M47.851 174.983C47.817 174.948 47.783 174.913 47.7491 174.878L63.6972 159.526C63.719 159.548 63.7407 159.571 63.7625 159.593L47.851 174.983Z" fill="#E85E49" fill-opacity="0.6"/>
<path d="M47.7024 174.829C47.6685 174.794 47.6346 174.759 47.6008 174.723L63.5854 159.409C63.6071 159.432 63.6288 159.455 63.6506 159.477L47.7024 174.829Z" fill="#E85E49" fill-opacity="0.6"/>
<path d="M47.48 174.597C38.6612 165.363 31.9103 154.357 27.6768 142.311C23.4432 130.264 21.824 117.454 22.927 104.734L44.9778 106.68C44.1524 116.258 45.3738 125.902 48.5612 134.971C51.7485 144.04 56.8288 152.328 63.4646 159.283L47.48 174.597Z" fill="#FDBE70" fill-opacity="0.6"/>
<path d="M22.9422 104.559C22.9465 104.511 22.9509 104.462 22.9553 104.413L45.0014 106.413C44.9986 106.444 44.9958 106.475 44.993 106.506L22.9422 104.559Z" fill="#FDBE70" fill-opacity="0.6"/>
<path d="M22.9712 104.239C23.8359 94.8672 26.1669 85.6892 29.8788 77.0403L50.2073 85.8028C47.4219 92.3022 45.6707 99.1975 45.0174 106.238L22.9712 104.239Z" fill="#FDBE70" fill-opacity="0.6"/>
<path d="M29.9906 76.7811C32.7333 70.4456 36.1965 64.4472 40.3118 58.9042L58.0646 72.128C54.9785 76.2891 52.3797 80.7904 50.3191 85.5436L29.9906 76.7811Z" fill="#FDBE70" fill-opacity="0.6"/>
<path d="M40.4805 58.6777C44.1849 53.7208 48.3912 49.1596 53.0325 45.0666L67.648 61.6924C64.1684 64.7641 61.0137 68.1851 58.2333 71.9015L40.4805 58.6777Z" fill="#FDBE70" fill-opacity="0.6"/>
<path d="M53.1889 44.9289C53.2624 44.8644 53.3361 44.8 53.4098 44.7357L67.946 61.4308C67.8988 61.4721 67.8515 61.5134 67.8044 61.5548L53.1889 44.9289Z" fill="#FDBE70" fill-opacity="0.6"/>
<path d="M53.4858 44.6694C53.5228 44.6373 53.5597 44.6052 53.5966 44.5732L68.093 61.3029C68.0694 61.3235 68.0457 61.344 68.022 61.3646L53.4858 44.6694Z" fill="#FDBE70" fill-opacity="0.6"/>
<path d="M53.7288 44.4588C55.3311 43.0748 56.9818 41.7479 58.6778 40.4804L71.9015 58.2332C70.6422 59.1754 69.416 60.1611 68.2252 61.1886L53.7288 44.4588Z" fill="#FDBE70" fill-opacity="0.6"/>
<path d="M58.9042 40.3117C59.9741 39.5174 61.0615 38.7469 62.1656 38.001L74.5297 56.3629C73.7169 56.9127 72.9162 57.48 72.128 58.0645L58.9042 40.3117Z" fill="#FDBE70" fill-opacity="0.6"/>
<path d="M62.3998 37.8433C62.9731 37.4585 63.5509 37.0804 64.133 36.7089L76.0121 55.3882C75.5931 55.656 75.177 55.9283 74.7639 56.2052L62.3998 37.8433Z" fill="#FDBE70" fill-opacity="0.6"/>
<path d="M64.2804 36.6151C64.3217 36.5888 64.363 36.5626 64.4043 36.5364L76.239 55.2439C76.2125 55.2607 76.186 55.2775 76.1596 55.2943L64.2804 36.6151Z" fill="#FDBE70" fill-opacity="0.6"/>
<path d="M64.4611 36.5005C64.5025 36.4744 64.5439 36.4483 64.5853 36.4222L76.3754 55.1578C76.3488 55.1745 76.3223 55.1912 76.2958 55.208L64.4611 36.5005Z" fill="#FDBE70" fill-opacity="0.6"/>
<path d="M64.6706 36.3685C64.7534 36.3165 64.8364 36.2646 64.9194 36.2128L76.6202 55.0043C76.567 55.0375 76.5139 55.0708 76.4607 55.1041L64.6706 36.3685Z" fill="#FDBE70" fill-opacity="0.6"/>
<path d="M65.0964 36.1027C70.1115 32.9908 75.4209 30.3804 80.9477 28.3091L88.6837 49.05C84.5402 50.6053 80.559 52.5627 76.7972 54.8942L65.0964 36.1027Z" fill="#FBF8B0" fill-opacity="0.6"/>
<path d="M81.2123 28.2104C83.1973 27.4736 85.2076 26.8072 87.2396 26.2123L93.4256 47.4671C91.9164 47.9097 90.4231 48.4048 88.9483 48.9514L81.2123 28.2104Z" fill="#FBF8B0" fill-opacity="0.6"/>
<path d="M87.5107 26.1334C88.174 25.9415 88.8394 25.7572 89.507 25.5806L95.1345 46.99C94.6538 47.1174 94.1745 47.2502 93.6967 47.3881L87.5107 26.1334Z" fill="#FBF8B0" fill-opacity="0.6"/>
<path d="M89.741 25.5191C89.883 25.4819 90.025 25.4451 90.1672 25.4086L95.6418 46.8576C95.5506 46.881 95.4595 46.9046 95.3685 46.9284L89.741 25.5191Z" fill="#FBF8B0" fill-opacity="0.6"/>
<path d="M90.3951 25.3505C90.5848 25.3024 90.7747 25.2549 90.9647 25.208L96.2348 46.7082C96.113 46.7383 95.9913 46.7687 95.8697 46.7995L90.3951 25.3505Z" fill="#FBF8B0" fill-opacity="0.6"/>
<path d="M91.1932 25.1519C91.3358 25.1172 91.4785 25.0827 91.6212 25.0486L96.7377 46.5859C96.6462 46.6078 96.5547 46.6298 96.4633 46.6521L91.1932 25.1519Z" fill="#FBF8B0" fill-opacity="0.6"/>
<path d="M91.752 25.0176C91.7996 25.0063 91.8472 24.995 91.8948 24.9838L96.96 46.5332C96.9294 46.5403 96.8989 46.5476 96.8684 46.5548L91.752 25.0176Z" fill="#FBF8B0" fill-opacity="0.6"/>
<path d="M92.065 24.9439C98.5092 23.4399 105.1 22.6519 111.717 22.5942L111.875 44.7303C106.91 44.7761 101.966 45.3673 97.1302 46.4933L92.065 24.9439Z" fill="#BEE5A0" fill-opacity="0.6"/>
<path d="M111.892 22.5929C111.941 22.5926 111.99 22.5923 112.038 22.592L112.144 44.7284C112.112 44.7286 112.081 44.7288 112.05 44.729L111.892 22.5929Z" fill="#BEE5A0" fill-opacity="0.6"/>
<path d="M112.139 22.5916C112.237 22.5912 112.335 22.591 112.433 22.5909V44.7275C112.37 44.7276 112.307 44.7277 112.245 44.7279L112.139 22.5916Z" fill="#56ADAE" fill-opacity="0.6"/>
<path d="M112.641 6.10352e-05C120.05 0.00935951 127.44 0.750516 134.703 2.21273L130.307 23.9085C124.491 22.7394 118.574 22.146 112.641 22.1367V6.10352e-05Z" fill="#9E0142" fill-opacity="0.4"/>
<path d="M134.98 2.2688C141.801 3.65987 148.478 5.68108 154.926 8.30644L146.552 28.7981C141.39 26.6979 136.044 25.0798 130.584 23.9645L134.98 2.2688Z" fill="#9E0142" fill-opacity="0.4"/>
<path d="M155.187 8.41327C158.734 9.86794 162.205 11.503 165.585 13.3119L155.115 32.8161C152.416 31.3726 149.645 30.0672 146.813 28.9049L155.187 8.41327Z" fill="#9E0142" fill-opacity="0.4"/>
<path d="M165.833 13.4455C168.187 14.7127 170.494 16.0633 172.752 17.4948L160.873 36.1741C159.075 35.0347 157.237 33.9592 155.364 32.9496L165.833 13.4455Z" fill="#9E0142" fill-opacity="0.4"/>
<path d="M172.99 17.6464C174.491 18.6036 175.969 19.5962 177.423 20.6236L164.625 38.6861C163.472 37.8719 162.301 37.0849 161.111 36.3256L172.99 17.6464Z" fill="#9E0142" fill-opacity="0.4"/>
<path d="M177.653 20.7869C178.522 21.4043 179.383 22.0341 180.234 22.676L166.884 40.3339C166.215 39.8297 165.539 39.3348 164.856 38.8493L177.653 20.7869Z" fill="#9E0142" fill-opacity="0.4"/>
<path d="M180.459 22.8463C181.167 23.3825 181.868 23.927 182.562 24.4798L168.754 41.7822C168.211 41.3499 167.662 40.9239 167.109 40.5042L180.459 22.8463Z" fill="#9E0142" fill-opacity="0.4"/>
<path d="M182.783 24.6559C183.267 25.0432 183.748 25.4345 184.225 25.8297L170.09 42.8661C169.721 42.5605 169.349 42.258 168.975 41.9584L182.783 24.6559Z" fill="#9E0142" fill-opacity="0.4"/>
<path d="M184.443 26.0099C184.713 26.2351 184.983 26.4616 185.252 26.6893L170.915 43.5563C170.713 43.3854 170.511 43.2154 170.308 43.0463L184.443 26.0099Z" fill="#9E0142" fill-opacity="0.4"/>
<path d="M185.461 26.8678C185.665 27.0412 185.868 27.2154 186.07 27.3902L171.574 44.12C171.425 43.9911 171.275 43.8627 171.125 43.7348L185.461 26.8678Z" fill="#9E0142" fill-opacity="0.4"/>
<path d="M186.273 27.5662C186.475 27.7416 186.677 27.9176 186.877 28.0944L172.222 44.6854C172.074 44.5551 171.926 44.4253 171.777 44.296L186.273 27.5662Z" fill="#9E0142" fill-opacity="0.4"/>
<path d="M187.079 28.2724C187.279 28.4497 187.478 28.6276 187.677 28.8063L172.865 45.257C172.718 45.1253 172.571 44.9941 172.424 44.8634L187.079 28.2724Z" fill="#9E0142" fill-opacity="0.4"/>
<path d="M187.877 28.9862C188.076 29.1654 188.273 29.3452 188.471 29.5258L173.502 45.8348C173.357 45.7017 173.211 45.5691 173.065 45.4369L187.877 28.9862Z" fill="#9E0142" fill-opacity="0.4"/>
<path d="M188.644 29.6848C188.792 29.8205 188.939 29.9567 189.086 30.0932L174.001 46.2949C173.893 46.1942 173.785 46.0939 173.676 45.9938L188.644 29.6848Z" fill="#9E0142" fill-opacity="0.4"/>
<path d="M189.233 30.2306C189.38 30.3674 189.526 30.5046 189.672 30.6421L174.473 46.7357C174.365 46.6343 174.257 46.5331 174.149 46.4323L189.233 30.2306Z" fill="#9E0142" fill-opacity="0.4"/>
<path d="M189.794 30.7574C189.891 30.8493 189.988 30.9413 190.085 31.0335L174.809 47.0546C174.738 46.9866 174.666 46.9187 174.595 46.851L189.794 30.7574Z" fill="#9E0142" fill-opacity="0.4"/>
<path d="M190.183 31.1263C190.279 31.2186 190.376 31.3111 190.472 31.4038L175.12 47.3519C175.049 47.2836 174.978 47.2154 174.907 47.1473L190.183 31.1263Z" fill="#9E0142" fill-opacity="0.4"/>
<path d="M190.622 31.5483C192.417 33.2805 194.154 35.0718 195.83 36.9194L179.414 51.7708C178.08 50.3009 176.698 48.8753 175.27 47.4965L190.622 31.5483Z" fill="#9E0142" fill-opacity="0.4"/>
<path d="M196.019 37.1288C197.152 38.3841 198.256 39.6648 199.331 40.97L182.228 55.0235C181.376 53.9897 180.501 52.975 179.604 51.9802L196.019 37.1288Z" fill="#9E0142" fill-opacity="0.4"/>
<path d="M199.511 41.1882C200.3 42.1508 201.073 43.1265 201.829 44.1148L184.235 57.5489C183.638 56.7699 183.029 56.0008 182.407 55.2417L199.511 41.1882Z" fill="#9E0142" fill-opacity="0.4"/>
<path d="M202.001 44.3392C202.43 44.9034 202.855 45.4716 203.273 46.0438L185.396 59.0979C185.07 58.6534 184.74 58.2118 184.406 57.7733L202.001 44.3392Z" fill="#9E0142" fill-opacity="0.4"/>
<path d="M203.44 46.2718C203.752 46.7007 204.062 47.1319 204.368 47.5652L186.275 60.3197C186.04 59.9868 185.802 59.6556 185.562 59.326L203.44 46.2718Z" fill="#9E0142" fill-opacity="0.4"/>
<path d="M204.531 47.796C204.785 48.157 205.036 48.5196 205.286 48.8836L187.013 61.3785C186.823 61.1014 186.631 60.8254 186.438 60.5505L204.531 47.796Z" fill="#9E0142" fill-opacity="0.4"/>
<path d="M205.445 49.1167C205.644 49.4076 205.841 49.6995 206.036 49.9922L187.616 62.2688C187.469 62.0491 187.321 61.83 187.172 61.6116L205.445 49.1167Z" fill="#9E0142" fill-opacity="0.4"/>
<path d="M206.193 50.2272C206.388 50.5205 206.581 50.8147 206.773 51.1097L188.208 63.1662C188.064 62.9448 187.919 62.7239 187.772 62.5038L206.193 50.2272Z" fill="#9E0142" fill-opacity="0.4"/>
<path d="M206.924 51.3409C207.069 51.5653 207.214 51.7903 207.357 52.0157L188.678 63.8949C188.572 63.7287 188.465 63.5629 188.358 63.3974L206.924 51.3409Z" fill="#9E0142" fill-opacity="0.4"/>
<path d="M207.502 52.2426C207.645 52.4684 207.787 52.6947 207.929 52.9215L189.137 64.6223C189.033 64.4551 188.928 64.2882 188.822 64.1217L207.502 52.2426Z" fill="#9E0142" fill-opacity="0.4"/>
<path d="M208.053 53.1212C208.159 53.2915 208.264 53.4621 208.369 53.633L189.495 65.1993C189.417 65.0734 189.34 64.9476 189.262 64.822L208.053 53.1212Z" fill="#9E0142" fill-opacity="0.4"/>
<path d="M208.457 53.7762C208.527 53.8903 208.597 54.0044 208.666 54.1187L189.736 65.5951C189.685 65.5108 189.634 65.4267 189.583 65.3426L208.457 53.7762Z" fill="#9E0142" fill-opacity="0.4"/>
<path d="M208.718 54.2049C208.753 54.2621 208.787 54.3193 208.822 54.3765L189.865 65.8078C189.84 65.7656 189.814 65.7234 189.789 65.6813L208.718 54.2049Z" fill="#9E0142" fill-opacity="0.4"/>
<path d="M208.857 54.4341C208.891 54.4913 208.926 54.5486 208.96 54.6059L189.976 65.9921C189.951 65.9498 189.925 65.9076 189.9 65.8654L208.857 54.4341Z" fill="#9E0142" fill-opacity="0.4"/>
<path d="M208.995 54.6635C209.029 54.7209 209.063 54.7782 209.098 54.8356L190.087 66.1765C190.061 66.1342 190.036 66.0919 190.011 66.0497L208.995 54.6635Z" fill="#9E0142" fill-opacity="0.4"/>
<path d="M209.132 54.8934C209.166 54.9508 209.2 55.0082 209.234 55.0657L190.197 66.3614C190.172 66.319 190.146 66.2766 190.121 66.2343L209.132 54.8934Z" fill="#9E0142" fill-opacity="0.4"/>
<path d="M209.269 55.1235C209.303 55.181 209.337 55.2386 209.371 55.2961L190.306 66.5464C190.281 66.504 190.256 66.4616 190.231 66.4192L209.269 55.1235Z" fill="#9E0142" fill-opacity="0.4"/>
<path d="M209.405 55.354C209.439 55.4116 209.473 55.4692 209.507 55.5268L190.415 66.7317C190.39 66.6892 190.365 66.6468 190.34 66.6043L209.405 55.354Z" fill="#9E0142" fill-opacity="0.4"/>
<path d="M209.595 55.6776C210.449 57.137 211.27 58.6155 212.058 60.1119L192.455 70.3957C191.831 69.2103 191.18 68.039 190.504 66.8825L209.595 55.6776Z" fill="#9E0142" fill-opacity="0.4"/>
<path d="M212.189 60.3619C212.642 61.2276 213.083 62.0991 213.513 62.9762L193.625 72.6961C193.287 72.0082 192.941 71.3248 192.586 70.6458L212.189 60.3619Z" fill="#9E0142" fill-opacity="0.4"/>
<path d="M213.637 63.2299C213.909 63.7872 214.175 64.3467 214.438 64.9084L194.368 74.2478C194.165 73.8135 193.958 73.3808 193.749 72.9498L213.637 63.2299Z" fill="#9E0142" fill-opacity="0.4"/>
<path d="M214.557 65.1644C214.705 65.4838 214.852 65.8039 214.997 66.1247L194.817 75.2247C194.708 74.9839 194.598 74.7436 194.487 74.5038L214.557 65.1644Z" fill="#9E0142" fill-opacity="0.4"/>
<path d="M215.113 66.3822C215.257 66.7034 215.4 67.0252 215.541 67.3477L195.255 76.2069C195.149 75.9648 195.041 75.7233 194.933 75.4821L215.113 66.3822Z" fill="#9E0142" fill-opacity="0.4"/>
<path d="M215.654 67.6065C215.795 67.9294 215.934 68.2529 216.071 68.5771L195.681 77.1942C195.578 76.9509 195.473 76.7081 195.368 76.4657L215.654 67.6065Z" fill="#9E0142" fill-opacity="0.4"/>
<path d="M216.181 68.8372C216.318 69.1617 216.453 69.4869 216.587 69.8127L196.095 78.1866C195.995 77.942 195.893 77.698 195.791 77.4544L216.181 68.8372Z" fill="#9E0142" fill-opacity="0.4"/>
<path d="M216.666 70.0056C216.716 70.1293 216.766 70.2532 216.816 70.3772L196.285 78.6534C196.248 78.562 196.211 78.4707 196.174 78.3794L216.666 70.0056Z" fill="#9E0142" fill-opacity="0.4"/>
<path d="M216.867 70.5018C216.917 70.6259 216.966 70.75 217.016 70.8742L196.445 79.0526C196.409 78.961 196.372 78.8695 196.335 78.7781L216.867 70.5018Z" fill="#9E0142" fill-opacity="0.4"/>
<path d="M217.065 70.9991C217.115 71.1234 217.164 71.2478 217.213 71.3722L196.604 79.4526C196.568 79.3609 196.531 79.2692 196.495 79.1776L217.065 70.9991Z" fill="#9E0142" fill-opacity="0.4"/>
<path d="M217.262 71.4973C217.311 71.6218 217.359 71.7464 217.407 71.8711L196.76 79.8533C196.724 79.7614 196.689 79.6695 196.653 79.5777L217.262 71.4973Z" fill="#9E0142" fill-opacity="0.4"/>
<path d="M217.456 71.9964C217.504 72.1211 217.552 72.2459 217.6 72.3708L196.914 80.2547C196.879 80.1626 196.844 80.0706 196.808 79.9786L217.456 71.9964Z" fill="#9E0142" fill-opacity="0.4"/>
<path d="M217.647 72.4965C217.695 72.6214 217.742 72.7465 217.789 72.8716L197.067 80.6569C197.032 80.5646 196.997 80.4724 196.962 80.3803L217.647 72.4965Z" fill="#9E0142" fill-opacity="0.4"/>
<path d="M217.837 72.9974C217.884 73.1226 217.93 73.2479 217.977 73.3732L197.218 81.0598C197.183 80.9674 197.149 80.875 197.114 80.7827L217.837 72.9974Z" fill="#9E0142" fill-opacity="0.4"/>
<path d="M218.012 73.4678C218.035 73.5305 218.058 73.5932 218.081 73.6559L197.304 81.2931C197.287 81.2468 197.27 81.2006 197.253 81.1543L218.012 73.4678Z" fill="#9E0142" fill-opacity="0.4"/>
<path d="M218.104 73.719C218.127 73.7817 218.15 73.8445 218.173 73.9073L197.378 81.495C197.361 81.4487 197.344 81.4024 197.327 81.3561L218.104 73.719Z" fill="#9E0142" fill-opacity="0.4"/>
<path d="M218.233 74.0715C218.384 74.4864 218.532 74.9021 218.678 75.3186L197.776 82.6086C197.665 82.2915 197.552 81.975 197.438 81.6592L218.233 74.0715Z" fill="#9E0142" fill-opacity="0.4"/>
<path d="M218.736 75.4836C218.758 75.5468 218.78 75.6099 218.802 75.6731L197.883 82.9133C197.866 82.8667 197.85 82.8201 197.834 82.7736L218.736 75.4836Z" fill="#9E0142" fill-opacity="0.4"/>
<path d="M218.835 75.7684C218.878 75.8947 218.922 76.0212 218.965 76.1477L198.012 83.2882C197.98 83.195 197.948 83.1017 197.915 83.0086L218.835 75.7684Z" fill="#9E0142" fill-opacity="0.4"/>
<path d="M218.997 76.2431C219.019 76.3064 219.04 76.3697 219.062 76.433L198.092 83.5236C198.076 83.4769 198.06 83.4303 198.044 83.3836L218.997 76.2431Z" fill="#9E0142" fill-opacity="0.4"/>
<path d="M219.083 76.4967C219.105 76.56 219.126 76.6234 219.147 76.6868L198.16 83.7275C198.145 83.6807 198.129 83.634 198.113 83.5873L219.083 76.4967Z" fill="#9E0142" fill-opacity="0.4"/>
<path d="M219.169 76.7504C219.19 76.8138 219.211 76.8772 219.232 76.9406L198.229 83.9314C198.213 83.8846 198.197 83.8379 198.182 83.7911L219.169 76.7504Z" fill="#9E0142" fill-opacity="0.4"/>
<path d="M219.287 77.1066C222.464 86.6895 224.335 96.6563 224.852 106.739L202.743 107.845C202.327 99.7648 200.827 91.7777 198.284 84.0973L219.287 77.1066Z" fill="#9E0142" fill-opacity="0.4"/>
<path d="M224.866 107.021C224.927 108.264 224.967 109.508 224.986 110.752L202.852 111.068C202.837 110.087 202.805 109.107 202.758 108.127L224.866 107.021Z" fill="#9E0142" fill-opacity="0.4"/>
<path d="M224.99 111.035C224.999 111.655 225.001 112.274 224.999 112.894L202.863 112.789C202.864 112.31 202.862 111.83 202.856 111.351L224.99 111.035Z" fill="#9E0142" fill-opacity="0.4"/>
<path d="M224.998 113.17C224.996 113.437 224.994 113.705 224.99 113.972L202.856 113.656C202.859 113.459 202.86 113.262 202.862 113.065L224.998 113.17Z" fill="#9E0142" fill-opacity="0.4"/>
<path d="M224.987 114.207C224.984 114.408 224.98 114.608 224.976 114.809L202.845 114.335C202.848 114.187 202.85 114.039 202.853 113.891L224.987 114.207Z" fill="#9E0142" fill-opacity="0.4"/>
<path d="M224.973 114.977C224.97 115.11 224.967 115.244 224.963 115.378L202.834 114.798C202.837 114.7 202.839 114.601 202.841 114.503L224.973 114.977Z" fill="#9E0142" fill-opacity="0.4"/>
<path d="M224.96 115.512C224.956 115.646 224.952 115.779 224.948 115.913L202.822 115.228C202.825 115.13 202.828 115.031 202.831 114.933L224.96 115.512Z" fill="#9E0142" fill-opacity="0.4"/>
<path d="M224.944 116.047C224.94 116.181 224.935 116.315 224.931 116.448L202.808 115.658C202.812 115.56 202.815 115.461 202.818 115.363L224.944 116.047Z" fill="#9E0142" fill-opacity="0.4"/>
<path d="M224.927 116.549C224.925 116.616 224.922 116.683 224.92 116.749L202.799 115.907C202.801 115.857 202.803 115.808 202.805 115.759L224.927 116.549Z" fill="#9E0142" fill-opacity="0.4"/>
<path d="M224.917 116.817C224.915 116.883 224.912 116.95 224.909 117.017L202.791 116.121C202.793 116.072 202.795 116.023 202.797 115.974L224.917 116.817Z" fill="#9E0142" fill-opacity="0.4"/>
<path d="M224.907 117.084C224.904 117.151 224.901 117.218 224.898 117.284L202.782 116.336C202.784 116.287 202.786 116.238 202.788 116.189L224.907 117.084Z" fill="#9E0142" fill-opacity="0.4"/>
<path d="M224.895 117.352C224.893 117.418 224.89 117.485 224.887 117.552L202.773 116.551C202.775 116.502 202.777 116.453 202.779 116.404L224.895 117.352Z" fill="#9E0142" fill-opacity="0.4"/>
<path d="M224.884 117.619C224.88 117.686 224.877 117.753 224.874 117.819L202.763 116.766C202.765 116.717 202.767 116.668 202.77 116.618L224.884 117.619Z" fill="#9E0142" fill-opacity="0.4"/>
<path d="M224.871 117.887C224.868 117.953 224.865 118.02 224.861 118.087L202.752 116.981C202.755 116.932 202.757 116.882 202.759 116.833L224.871 117.887Z" fill="#9E0142" fill-opacity="0.4"/>
<path d="M224.858 118.154C224.854 118.221 224.851 118.287 224.848 118.354L202.741 117.196C202.744 117.146 202.746 117.097 202.749 117.048L224.858 118.154Z" fill="#9E0142" fill-opacity="0.4"/>
<path d="M224.844 118.421C224.841 118.488 224.837 118.555 224.833 118.622L202.73 117.41C202.733 117.361 202.735 117.312 202.738 117.263L224.844 118.421Z" fill="#9E0142" fill-opacity="0.4"/>
<path d="M224.83 118.689C224.826 118.755 224.822 118.822 224.818 118.889L202.718 117.625C202.721 117.576 202.724 117.527 202.726 117.478L224.83 118.689Z" fill="#9E0142" fill-opacity="0.4"/>
<path d="M224.808 119.063C224.71 120.751 224.573 122.437 224.398 124.119L202.383 121.805C202.521 120.473 202.629 119.137 202.708 117.8L224.808 119.063Z" fill="#9E0142" fill-opacity="0.4"/>
<path d="M224.369 124.4C224.275 125.282 224.171 126.164 224.056 127.044L202.109 124.155C202.198 123.466 202.28 122.776 202.354 122.086L224.369 124.4Z" fill="#9E0142" fill-opacity="0.4"/>
<path d="M224.019 127.324C223.926 128.027 223.826 128.729 223.719 129.43L201.839 126.071C201.921 125.527 201.999 124.981 202.072 124.435L224.019 127.324Z" fill="#9E0142" fill-opacity="0.4"/>
<path d="M223.677 129.703C223.636 129.967 223.594 130.231 223.552 130.495L201.704 126.928C201.736 126.733 201.766 126.539 201.797 126.344L223.677 129.703Z" fill="#9E0142" fill-opacity="0.4"/>
<path d="M223.508 130.76C223.465 131.024 223.42 131.288 223.375 131.551L201.563 127.776C201.596 127.582 201.629 127.388 201.661 127.193L223.508 130.76Z" fill="#9E0142" fill-opacity="0.4"/>
<path d="M223.335 131.783C223.301 131.981 223.266 132.178 223.23 132.376L201.445 128.445C201.472 128.3 201.497 128.154 201.523 128.008L223.335 131.783Z" fill="#9E0142" fill-opacity="0.4"/>
<path d="M223.201 132.541C223.177 132.672 223.153 132.804 223.128 132.935L201.362 128.901C201.38 128.804 201.398 128.707 201.416 128.61L223.201 132.541Z" fill="#9E0142" fill-opacity="0.4"/>
<path d="M223.104 133.068C223.08 133.199 223.055 133.33 223.03 133.462L201.283 129.324C201.302 129.227 201.32 129.13 201.338 129.034L223.104 133.068Z" fill="#9E0142" fill-opacity="0.4"/>
<path d="M223.005 133.594C222.98 133.725 222.954 133.856 222.929 133.988L201.202 129.747C201.221 129.65 201.24 129.553 201.258 129.456L223.005 133.594Z" fill="#9E0142" fill-opacity="0.4"/>
<path d="M222.91 134.087C222.897 134.152 222.884 134.218 222.871 134.283L201.155 129.991C201.164 129.942 201.174 129.894 201.183 129.845L222.91 134.087Z" fill="#9E0142" fill-opacity="0.4"/>
<path d="M222.858 134.349C222.845 134.415 222.832 134.48 222.819 134.546L201.113 130.202C201.122 130.153 201.132 130.105 201.142 130.057L222.858 134.349Z" fill="#9E0142" fill-opacity="0.4"/>
<path d="M222.806 134.612C222.792 134.677 222.779 134.743 222.766 134.808L201.07 130.412C201.08 130.364 201.09 130.316 201.1 130.267L222.806 134.612Z" fill="#9E0142" fill-opacity="0.4"/>
<path d="M222.753 134.874C222.739 134.94 222.726 135.005 222.713 135.071L201.027 130.623C201.037 130.575 201.047 130.527 201.057 130.478L222.753 134.874Z" fill="#9E0142" fill-opacity="0.4"/>
<path d="M222.677 135.242C222.48 136.199 222.27 137.153 222.048 138.104L200.498 133.039C200.672 132.293 200.837 131.545 200.992 130.794L222.677 135.242Z" fill="#9E0142" fill-opacity="0.4"/>
<path d="M221.983 138.379C221.82 139.069 221.65 139.758 221.474 140.445L200.038 134.919C200.175 134.385 200.307 133.85 200.434 133.314L221.983 138.379Z" fill="#9E0142" fill-opacity="0.4"/>
<path d="M221.404 140.718C221.293 141.145 221.18 141.572 221.064 141.998L199.709 136.167C199.797 135.842 199.883 135.518 199.968 135.192L221.404 140.718Z" fill="#9E0142" fill-opacity="0.4"/>
<path d="M220.99 142.27C220.896 142.61 220.802 142.949 220.705 143.288L199.421 137.203C199.494 136.949 199.565 136.694 199.635 136.439L220.99 142.27Z" fill="#9E0142" fill-opacity="0.4"/>
<path d="M220.639 143.52C220.584 143.713 220.528 143.906 220.471 144.098L199.231 137.862C199.273 137.72 199.314 137.578 199.355 137.436L220.639 143.52Z" fill="#9E0142" fill-opacity="0.4"/>
<path d="M220.415 144.292C220.358 144.484 220.301 144.676 220.243 144.868L199.048 138.48C199.091 138.339 199.133 138.197 199.175 138.055L220.415 144.292Z" fill="#9E0142" fill-opacity="0.4"/>
<path d="M220.195 145.029C220.156 145.157 220.117 145.285 220.078 145.413L198.914 138.924C198.943 138.83 198.971 138.735 199 138.641L220.195 145.029Z" fill="#9E0142" fill-opacity="0.4"/>
<path d="M220.048 145.509C220.029 145.573 220.009 145.637 219.989 145.701L198.841 139.162C198.855 139.115 198.87 139.068 198.884 139.02L220.048 145.509Z" fill="#9E0142" fill-opacity="0.4"/>
<path d="M219.969 145.765C219.95 145.829 219.93 145.893 219.91 145.957L198.777 139.367C198.792 139.32 198.806 139.273 198.821 139.226L219.969 145.765Z" fill="#9E0142" fill-opacity="0.4"/>
<path d="M219.89 146.021C219.87 146.085 219.85 146.148 219.83 146.212L198.713 139.572C198.727 139.525 198.742 139.478 198.757 139.431L219.89 146.021Z" fill="#9E0142" fill-opacity="0.4"/>
<path d="M219.81 146.276C219.79 146.34 219.77 146.404 219.75 146.468L198.648 139.777C198.663 139.73 198.678 139.683 198.693 139.636L219.81 146.276Z" fill="#9E0142" fill-opacity="0.4"/>
<path d="M219.729 146.532C219.709 146.595 219.689 146.659 219.668 146.723L198.583 139.982C198.598 139.935 198.613 139.889 198.628 139.842L219.729 146.532Z" fill="#9E0142" fill-opacity="0.4"/>
<path d="M219.615 146.889C219.426 147.479 219.231 148.068 219.032 148.655L198.079 141.515C198.233 141.061 198.383 140.605 198.53 140.149L219.615 146.889Z" fill="#9E0142" fill-opacity="0.4"/>
<path d="M218.941 148.922C218.798 149.34 218.653 149.757 218.505 150.173L197.656 142.734C197.768 142.417 197.879 142.1 197.988 141.782L218.941 148.922Z" fill="#9E0142" fill-opacity="0.4"/>
<path d="M218.412 150.432C218.322 150.684 218.231 150.935 218.139 151.186L197.362 143.549C197.429 143.364 197.497 143.179 197.563 142.993L218.412 150.432Z" fill="#9E0142" fill-opacity="0.4"/>
<path d="M218.07 151.376C218.023 151.501 217.977 151.626 217.93 151.752L197.189 144.016C197.224 143.923 197.258 143.831 197.292 143.738L218.07 151.376Z" fill="#9E0142" fill-opacity="0.4"/>
<path d="M217.883 151.878C217.837 152.003 217.79 152.128 217.742 152.253L197.038 144.419C197.073 144.326 197.108 144.234 197.142 144.142L217.883 151.878Z" fill="#9E0142" fill-opacity="0.4"/>
<path d="M217.707 152.347C217.683 152.41 217.659 152.472 217.635 152.535L196.95 144.651C196.968 144.605 196.985 144.559 197.003 144.513L217.707 152.347Z" fill="#9E0142" fill-opacity="0.4"/>
<path d="M217.611 152.598C217.588 152.66 217.564 152.723 217.54 152.785L196.874 144.852C196.891 144.806 196.909 144.76 196.926 144.714L217.611 152.598Z" fill="#9E0142" fill-opacity="0.4"/>
<path d="M217.516 152.848C217.492 152.91 217.468 152.973 217.444 153.035L196.796 145.053C196.814 145.007 196.832 144.961 196.849 144.915L217.516 152.848Z" fill="#9E0142" fill-opacity="0.4"/>
<path d="M217.419 153.098C217.395 153.16 217.371 153.222 217.347 153.285L196.719 145.253C196.736 145.207 196.754 145.161 196.772 145.115L217.419 153.098Z" fill="#9E0142" fill-opacity="0.4"/>
<path d="M217.323 153.347C217.298 153.409 217.274 153.472 217.25 153.534L196.64 145.454C196.658 145.408 196.676 145.362 196.694 145.316L217.323 153.347Z" fill="#9E0142" fill-opacity="0.4"/>
<path d="M217.225 153.597C217.201 153.659 217.176 153.721 217.152 153.783L196.562 145.654C196.58 145.608 196.598 145.562 196.616 145.516L217.225 153.597Z" fill="#9E0142" fill-opacity="0.4"/>
<path d="M217.102 153.908C217.028 154.095 216.954 154.281 216.879 154.467L196.348 146.191C196.403 146.054 196.458 145.916 196.512 145.779L217.102 153.908Z" fill="#9E0142" fill-opacity="0.4"/>
<path d="M216.804 154.654C216.729 154.84 216.653 155.026 216.577 155.211L196.105 146.788C196.161 146.652 196.217 146.515 196.273 146.378L216.804 154.654Z" fill="#9E0142" fill-opacity="0.4"/>
<path d="M216.526 155.335C216.5 155.397 216.475 155.459 216.449 155.521L195.998 147.05C196.017 147.004 196.035 146.958 196.054 146.913L216.526 155.335Z" fill="#9E0142" fill-opacity="0.4"/>
<path d="M216.424 155.583C216.398 155.645 216.372 155.706 216.347 155.768L195.915 147.248C195.934 147.203 195.953 147.157 195.972 147.112L216.424 155.583Z" fill="#9E0142" fill-opacity="0.4"/>
<path d="M216.308 155.861C216.256 155.985 216.205 156.108 216.153 156.231L195.762 147.614C195.8 147.523 195.838 147.432 195.876 147.341L216.308 155.861Z" fill="#9E0142" fill-opacity="0.4"/>
<path d="M216.113 156.324C216.087 156.385 216.061 156.447 216.035 156.508L195.665 147.843C195.684 147.797 195.704 147.752 195.723 147.707L216.113 156.324Z" fill="#9E0142" fill-opacity="0.4"/>
<path d="M216.009 156.57C215.983 156.632 215.956 156.693 215.93 156.755L195.581 148.041C195.6 147.995 195.619 147.95 195.639 147.905L216.009 156.57Z" fill="#9E0142" fill-opacity="0.4"/>
<path d="M215.861 156.915C213.183 163.147 209.947 169.124 206.193 174.773L187.772 162.496C190.776 157.973 193.367 153.189 195.512 148.201L215.861 156.915Z" fill="#E85E49" fill-opacity="0.4"/>
<path d="M206.036 175.008C203.013 179.532 199.665 183.831 196.019 187.871L179.604 173.02C182.519 169.788 185.196 166.349 187.616 162.731L206.036 175.008Z" fill="#E85E49" fill-opacity="0.4"/>
<path d="M195.83 188.081C194.634 189.399 193.407 190.689 192.149 191.95L176.496 176.297C177.493 175.297 178.466 174.274 179.414 173.229L195.83 188.081Z" fill="#E85E49" fill-opacity="0.4"/>
<path d="M191.95 192.149C190.816 193.28 189.658 194.387 188.476 195.469L173.547 179.124C174.482 178.268 175.399 177.392 176.297 176.496L191.95 192.149Z" fill="#E85E49" fill-opacity="0.4"/>
<path d="M188.268 195.659C187.216 196.618 186.146 197.556 185.058 198.474L170.802 181.539C171.661 180.814 172.507 180.072 173.339 179.315L188.268 195.659Z" fill="#E85E49" fill-opacity="0.4"/>
<path d="M184.842 198.656C183.889 199.456 182.923 200.241 181.943 201.009L168.301 183.576C169.073 182.97 169.835 182.352 170.586 181.721L184.842 198.656Z" fill="#E85E49" fill-opacity="0.4"/>
<path d="M181.721 201.183C180.81 201.894 179.889 202.591 178.956 203.273L165.902 185.396C166.636 184.858 167.361 184.31 168.079 183.75L181.721 201.183Z" fill="#E85E49" fill-opacity="0.4"/>
<path d="M178.728 203.44C177.866 204.068 176.996 204.683 176.116 205.286L163.622 187.013C164.312 186.539 164.997 186.055 165.674 185.562L178.728 203.44Z" fill="#E85E49" fill-opacity="0.4"/>
<path d="M175.883 205.445C175.002 206.046 174.113 206.634 173.216 207.209L161.292 188.558C161.997 188.106 162.696 187.644 163.388 187.172L175.883 205.445Z" fill="#E85E49" fill-opacity="0.4"/>
<path d="M172.978 207.362C172.229 207.839 171.475 208.307 170.716 208.766L159.284 189.81C159.878 189.45 160.468 189.084 161.054 188.711L172.978 207.362Z" fill="#E85E49" fill-opacity="0.4"/>
<path d="M170.474 208.912C169.866 209.278 169.255 209.637 168.64 209.991L157.618 190.794C158.095 190.519 158.57 190.239 159.042 189.955L170.474 208.912Z" fill="#E85E49" fill-opacity="0.4"/>
<path d="M168.395 210.132C167.935 210.395 167.473 210.656 167.008 210.913L156.307 191.535C156.664 191.337 157.019 191.137 157.373 190.935L168.395 210.132Z" fill="#E85E49" fill-opacity="0.4"/>
<path d="M166.761 211.049C166.375 211.262 165.987 211.473 165.598 211.681L155.174 192.152C155.47 191.993 155.766 191.833 156.06 191.671L166.761 211.049Z" fill="#E85E49" fill-opacity="0.4"/>
<path d="M165.384 211.795C165.207 211.889 165.03 211.983 164.852 212.076L154.569 192.474C154.699 192.405 154.83 192.336 154.961 192.266L165.384 211.795Z" fill="#E85E49" fill-opacity="0.4"/>
<path d="M164.704 212.155C164.585 212.217 164.467 212.278 164.348 212.34L154.158 192.688C154.245 192.643 154.332 192.597 154.42 192.552L164.704 212.155Z" fill="#E85E49" fill-opacity="0.4"/>
<path d="M164.258 212.386C164.199 212.417 164.14 212.448 164.08 212.479L153.937 192.803C153.981 192.78 154.024 192.758 154.068 192.735L164.258 212.386Z" fill="#E85E49" fill-opacity="0.4"/>
<path d="M164.021 212.509C163.961 212.54 163.902 212.571 163.842 212.601L153.746 192.901C153.789 192.879 153.833 192.856 153.877 192.834L164.021 212.509Z" fill="#E85E49" fill-opacity="0.4"/>
<path d="M163.687 212.681C160.114 214.506 156.446 216.139 152.698 217.573L144.814 196.888C147.807 195.742 150.736 194.438 153.59 192.981L163.687 212.681Z" fill="#E85E49" fill-opacity="0.4"/>
<path d="M152.434 217.674C150.019 218.591 147.573 219.424 145.1 220.173L138.712 198.978C140.68 198.382 142.628 197.718 144.551 196.989L152.434 217.674Z" fill="#E85E49" fill-opacity="0.4"/>
<path d="M144.83 220.255C142.44 220.971 140.028 221.609 137.597 222.165L132.685 200.58C134.62 200.137 136.54 199.63 138.441 199.06L144.83 220.255Z" fill="#E85E49" fill-opacity="0.4"/>
<path d="M137.321 222.228C135.498 222.64 133.665 223.007 131.823 223.328L128.048 201.516C129.509 201.261 130.964 200.969 132.41 200.643L137.321 222.228Z" fill="#E85E49" fill-opacity="0.4"/>
<path d="M131.545 223.376C130.23 223.602 128.911 223.805 127.59 223.983L124.648 202.043C125.691 201.902 126.732 201.742 127.77 201.564L131.545 223.376Z" fill="#E85E49" fill-opacity="0.4"/>
<path d="M127.31 224.021C126.253 224.161 125.194 224.287 124.134 224.397L121.872 202.376C122.705 202.289 123.537 202.191 124.368 202.081L127.31 224.021Z" fill="#E85E49" fill-opacity="0.4"/>
<path d="M123.853 224.426C122.881 224.524 121.908 224.61 120.934 224.683L119.302 202.607C120.066 202.549 120.829 202.482 121.591 202.405L123.853 224.426Z" fill="#E85E49" fill-opacity="0.4"/>
<path d="M120.652 224.704C119.856 224.762 119.059 224.812 118.261 224.852L117.156 202.743C117.777 202.711 118.399 202.673 119.02 202.628L120.652 224.704Z" fill="#E85E49" fill-opacity="0.4"/>
<path d="M117.979 224.866C117.36 224.897 116.741 224.922 116.121 224.942L115.437 202.816C115.916 202.8 116.395 202.781 116.873 202.758L117.979 224.866Z" fill="#E85E49" fill-opacity="0.4"/>
<path d="M115.839 224.95C115.219 224.969 114.6 224.982 113.98 224.99L113.716 202.855C114.196 202.849 114.675 202.838 115.154 202.824L115.839 224.95Z" fill="#E85E49" fill-opacity="0.4"/>
<path d="M113.698 224.994C113.167 224.999 112.636 225.001 112.106 224.999L112.211 202.863C112.619 202.864 113.026 202.863 113.434 202.859L113.698 224.994Z" fill="#E85E49" fill-opacity="0.4"/>
<path d="M111.83 224.998C111.563 224.996 111.295 224.994 111.028 224.99L111.344 202.856C111.541 202.859 111.738 202.86 111.935 202.862L111.83 224.998Z" fill="#E85E49" fill-opacity="0.4"/>
<path d="M110.759 224.987C110.492 224.982 110.224 224.977 109.957 224.971L110.484 202.841C110.681 202.845 110.878 202.849 111.075 202.852L110.759 224.987Z" fill="#E85E49" fill-opacity="0.4"/>
<path d="M109.722 224.966C109.522 224.961 109.321 224.955 109.121 224.949L109.805 202.823C109.953 202.828 110.101 202.832 110.249 202.835L109.722 224.966Z" fill="#E85E49" fill-opacity="0.4"/>
<path d="M108.986 224.945C108.919 224.943 108.853 224.941 108.786 224.939L109.523 202.814C109.573 202.816 109.622 202.818 109.671 202.819L108.986 224.945Z" fill="#E85E49" fill-opacity="0.4"/>
<path d="M108.719 224.936C108.652 224.934 108.585 224.932 108.518 224.93L109.308 202.807C109.358 202.809 109.407 202.81 109.456 202.812L108.719 224.936Z" fill="#E85E49" fill-opacity="0.4"/>
<path d="M108.451 224.927C108.384 224.925 108.317 224.922 108.251 224.92L109.093 202.799C109.143 202.801 109.192 202.803 109.241 202.805L108.451 224.927Z" fill="#E85E49" fill-opacity="0.4"/>
<path d="M108.183 224.917C108.117 224.915 108.05 224.912 107.983 224.909L108.878 202.791C108.928 202.793 108.977 202.795 109.026 202.797L108.183 224.917Z" fill="#E85E49" fill-opacity="0.4"/>
<path d="M107.882 224.905C107.749 224.9 107.615 224.894 107.482 224.888L108.482 202.774C108.581 202.778 108.679 202.783 108.778 202.787L107.882 224.905Z" fill="#E85E49" fill-opacity="0.4"/>
<path d="M107.381 224.883C107.314 224.88 107.247 224.877 107.181 224.874L108.234 202.763C108.283 202.765 108.332 202.767 108.382 202.769L107.381 224.883Z" fill="#E85E49" fill-opacity="0.4"/>
<path d="M107.114 224.871C107.047 224.868 106.98 224.864 106.913 224.861L108.019 202.752C108.068 202.755 108.118 202.757 108.167 202.759L107.114 224.871Z" fill="#E85E49" fill-opacity="0.4"/>
<path d="M106.846 224.858C106.779 224.854 106.713 224.851 106.646 224.848L107.804 202.741C107.854 202.744 107.903 202.746 107.952 202.749L106.846 224.858Z" fill="#E85E49" fill-opacity="0.4"/>
<path d="M106.579 224.844C106.512 224.841 106.445 224.837 106.378 224.833L107.59 202.73C107.639 202.733 107.688 202.735 107.737 202.738L106.579 224.844Z" fill="#E85E49" fill-opacity="0.4"/>
<path d="M106.311 224.83C106.245 224.826 106.178 224.822 106.111 224.818L107.375 202.718C107.424 202.721 107.473 202.723 107.522 202.726L106.311 224.83Z" fill="#E85E49" fill-opacity="0.4"/>
<path d="M105.937 224.808C86.2273 223.657 67.1682 217.338 50.674 206.488L62.8627 188.009C76.0983 196.71 91.3883 201.779 107.2 202.708L105.937 224.808Z" fill="#E85E49" fill-opacity="0.4"/>
<path d="M50.528 206.392C50.4722 206.355 50.4164 206.318 50.3607 206.281L62.5934 187.832C62.6345 187.859 62.6756 187.886 62.7167 187.913L50.528 206.392Z" fill="#E85E49" fill-opacity="0.4"/>
<path d="M50.3047 206.244C50.249 206.207 50.1933 206.17 50.1377 206.133L62.4142 187.713C62.4552 187.74 62.4963 187.767 62.5374 187.795L50.3047 206.244Z" fill="#E85E49" fill-opacity="0.4"/>
<path d="M49.9923 206.036C49.3285 205.593 48.6694 205.142 48.0152 204.684L60.7266 186.561C61.237 186.918 61.7511 187.27 62.2688 187.616L49.9923 206.036Z" fill="#E85E49" fill-opacity="0.4"/>
<path d="M47.7841 204.522C47.204 204.114 46.6278 203.701 46.0556 203.282L59.1523 185.435C59.5971 185.761 60.0448 186.082 60.4955 186.399L47.7841 204.522Z" fill="#E85E49" fill-opacity="0.4"/>
<path d="M45.8279 203.115C45.5443 202.906 45.2616 202.696 44.98 202.485L58.2881 184.795C58.4996 184.954 58.7117 185.112 58.9246 185.268L45.8279 203.115Z" fill="#E85E49" fill-opacity="0.4"/>
<path d="M44.7598 202.319C44.5463 202.158 44.3334 201.997 44.121 201.834L57.597 184.272C57.7535 184.392 57.9105 184.511 58.0679 184.63L44.7598 202.319Z" fill="#E85E49" fill-opacity="0.4"/>
<path d="M43.9078 201.67C43.6958 201.507 43.4845 201.344 43.2737 201.179L56.9162 183.746C57.0716 183.867 57.2275 183.988 57.3837 184.108L43.9078 201.67Z" fill="#E85E49" fill-opacity="0.4"/>
<path d="M43.0884 201.034C42.9306 200.91 42.7731 200.786 42.616 200.662L56.3826 183.326C56.4985 183.418 56.6146 183.51 56.7309 183.601L43.0884 201.034Z" fill="#E85E49" fill-opacity="0.4"/>
<path d="M42.4844 200.557C42.3797 200.474 42.2752 200.391 42.1709 200.307L56.0199 183.037C56.0968 183.099 56.1739 183.161 56.251 183.222L42.4844 200.557Z" fill="#E85E49" fill-opacity="0.4"/>
<path d="M42.066 200.223C41.9618 200.139 41.8577 200.055 41.7537 199.971L55.6847 182.768C55.7614 182.83 55.8381 182.892 55.915 182.953L42.066 200.223Z" fill="#E85E49" fill-opacity="0.4"/>
<path d="M41.6492 199.887C41.5454 199.802 41.4417 199.718 41.3381 199.633L55.3509 182.497C55.4272 182.559 55.5037 182.621 55.5803 182.683L41.6492 199.887Z" fill="#E85E49" fill-opacity="0.4"/>
<path d="M41.2341 199.548C41.1306 199.464 41.0273 199.379 40.9242 199.294L55.0184 182.224C55.0944 182.286 55.1706 182.349 55.2468 182.411L41.2341 199.548Z" fill="#E85E49" fill-opacity="0.4"/>
<path d="M40.8206 199.208C40.7175 199.123 40.6146 199.038 40.5119 198.952L54.6872 181.949C54.7629 182.012 54.8388 182.075 54.9147 182.138L40.8206 199.208Z" fill="#E85E49" fill-opacity="0.4"/>
<path d="M40.4086 198.866C40.306 198.78 40.2035 198.694 40.1012 198.608L54.3572 181.673C54.4327 181.737 54.5082 181.8 54.5839 181.863L40.4086 198.866Z" fill="#E85E49" fill-opacity="0.4"/>
<path d="M39.9984 198.522C39.8961 198.436 39.7941 198.349 39.6921 198.263L54.0286 181.396C54.1038 181.46 54.179 181.523 54.2544 181.587L39.9984 198.522Z" fill="#E85E49" fill-opacity="0.4"/>
<path d="M39.6153 198.198C39.5644 198.154 39.5135 198.111 39.4626 198.067L53.8392 181.235C53.8767 181.267 53.9142 181.299 53.9518 181.331L39.6153 198.198Z" fill="#E85E49" fill-opacity="0.4"/>
<path d="M39.4116 198.024C39.3607 197.98 39.31 197.937 39.2592 197.893L53.6758 181.095C53.7132 181.127 53.7507 181.159 53.7881 181.191L39.4116 198.024Z" fill="#E85E49" fill-opacity="0.4"/>
<path d="M39.1267 197.78C38.4538 197.201 37.7878 196.614 37.1288 196.019L51.9802 179.604C52.4959 180.069 53.017 180.528 53.5433 180.981L39.1267 197.78Z" fill="#E85E49" fill-opacity="0.4"/>
<path d="M36.9194 195.83C36.5925 195.533 36.2673 195.235 35.9439 194.934L51.0282 178.733C51.2745 178.961 51.522 179.188 51.7708 179.414L36.9194 195.83Z" fill="#E85E49" fill-opacity="0.4"/>
<path d="M35.7372 194.742C35.4798 194.502 35.2235 194.26 34.9684 194.017L50.2444 177.996C50.436 178.178 50.6284 178.36 50.8215 178.54L35.7372 194.742Z" fill="#E85E49" fill-opacity="0.4"/>
<path d="M34.7689 193.827C34.5756 193.643 34.383 193.457 34.191 193.271L49.6188 177.396C49.7604 177.533 49.9024 177.67 50.0449 177.806L34.7689 193.827Z" fill="#E85E49" fill-opacity="0.4"/>
<path d="M34.0223 193.107C33.8786 192.967 33.7353 192.827 33.5923 192.686L49.1331 176.922C49.2386 177.026 49.3442 177.129 49.4501 177.232L34.0223 193.107Z" fill="#E85E49" fill-opacity="0.4"/>
<path d="M33.4727 192.568C33.3775 192.474 33.2826 192.38 33.1877 192.286L48.8034 176.596C48.8733 176.665 48.9433 176.735 49.0135 176.804L33.4727 192.568Z" fill="#E85E49" fill-opacity="0.4"/>
<path d="M33.0924 192.191C32.9977 192.097 32.9032 192.002 32.8088 191.908L48.499 176.292C48.5686 176.362 48.6383 176.431 48.7081 176.501L33.0924 192.191Z" fill="#E85E49" fill-opacity="0.4"/>
<path d="M32.714 191.812C32.6198 191.718 32.5257 191.623 32.4318 191.527L48.1961 175.987C48.2653 176.057 48.3347 176.127 48.4042 176.197L32.714 191.812Z" fill="#E85E49" fill-opacity="0.4"/>
<path d="M32.361 191.456C32.314 191.408 32.2672 191.36 32.2203 191.313L48.0216 175.809C48.0561 175.844 48.0907 175.88 48.1253 175.915L32.361 191.456Z" fill="#E85E49" fill-opacity="0.4"/>
<path d="M32.1732 191.265C32.1264 191.217 32.0797 191.169 32.033 191.121L47.8711 175.656C47.9055 175.691 47.94 175.726 47.9745 175.761L32.1732 191.265Z" fill="#E85E49" fill-opacity="0.4"/>
<path d="M31.9861 191.073C31.9394 191.025 31.8927 190.977 31.8461 190.93L47.721 175.502C47.7554 175.537 47.7898 175.572 47.8242 175.608L31.9861 191.073Z" fill="#E85E49" fill-opacity="0.4"/>
<path d="M31.7993 190.881C31.7527 190.833 31.7062 190.785 31.6597 190.737L47.5712 175.347C47.6055 175.383 47.6398 175.418 47.6741 175.454L31.7993 190.881Z" fill="#E85E49" fill-opacity="0.4"/>
<path d="M31.6129 190.689C31.5665 190.641 31.5201 190.593 31.4737 190.545L47.4218 175.193C47.456 175.228 47.4902 175.264 47.5245 175.299L31.6129 190.689Z" fill="#E85E49" fill-opacity="0.4"/>
<path d="M31.4271 190.496C31.3808 190.448 31.3345 190.4 31.2882 190.352L47.2728 175.038C47.3069 175.073 47.3411 175.109 47.3752 175.144L31.4271 190.496Z" fill="#E85E49" fill-opacity="0.4"/>
<path d="M31.1673 190.225C20.6506 179.221 12.4765 166.196 7.14002 151.94C1.80352 137.684 -0.584406 122.494 0.120801 107.288L22.2324 108.341C21.6701 120.546 23.5885 132.737 27.8717 144.179C32.1548 155.621 38.7138 166.076 47.1519 174.911L31.1673 190.225Z" fill="#FDBE70" fill-opacity="0.4"/>
<path d="M0.134216 107.006C0.155771 106.565 0.179919 106.124 0.206661 105.684L22.3009 107.053C22.2807 107.388 22.2623 107.724 22.2458 108.059L0.134216 107.006Z" fill="#FDBE70" fill-opacity="0.4"/>
<path d="M0.223755 105.409C0.240609 105.142 0.25841 104.875 0.277166 104.608L22.3574 106.188C22.3436 106.384 22.3305 106.581 22.318 106.778L0.223755 105.409Z" fill="#FDBE70" fill-opacity="0.4"/>
<path d="M0.291443 104.407C0.30106 104.274 0.310912 104.141 0.321004 104.007L22.3935 105.692C22.386 105.79 22.3788 105.888 22.3717 105.987L0.291443 104.407Z" fill="#FDBE70" fill-opacity="0.4"/>
<path d="M0.331238 103.873C0.34149 103.74 0.351978 103.607 0.362705 103.473L22.4269 105.263C22.419 105.361 22.4113 105.459 22.4037 105.558L0.331238 103.873Z" fill="#FDBE70" fill-opacity="0.4"/>
<path d="M0.37085 103.373C0.376273 103.306 0.381755 103.24 0.387297 103.173L22.4471 105.015C22.4431 105.064 22.439 105.113 22.435 105.162L0.37085 103.373Z" fill="#FDBE70" fill-opacity="0.4"/>
<path d="M0.392883 103.106C0.398465 103.04 0.404109 102.973 0.409809 102.906L22.4652 104.801C22.461 104.85 22.4569 104.899 22.4527 104.948L0.392883 103.106Z" fill="#FDBE70" fill-opacity="0.4"/>
<path d="M0.415588 102.839C0.421329 102.773 0.427126 102.706 0.432986 102.64L22.4838 104.586C22.4795 104.635 22.4752 104.685 22.471 104.734L0.415588 102.839Z" fill="#FDBE70" fill-opacity="0.4"/>
<path d="M0.438904 102.573C0.444803 102.506 0.450762 102.439 0.456779 102.373L22.5029 104.372C22.4985 104.421 22.4941 104.47 22.4897 104.519L0.438904 102.573Z" fill="#FDBE70" fill-opacity="0.4"/>
<path d="M0.472595 102.199C0.692819 99.8038 0.989785 97.4165 1.36304 95.0406L23.2271 98.5035C22.9308 100.394 22.6945 102.293 22.5188 104.198L0.472595 102.199Z" fill="#FDBE70" fill-opacity="0.4"/>
<path d="M1.40723 94.7617C1.68792 93.0038 2.01029 91.2528 2.37409 89.5101L24.0379 94.0611C23.7499 95.4427 23.4943 96.831 23.2713 98.2247L1.40723 94.7617Z" fill="#FDBE70" fill-opacity="0.4"/>
<path d="M2.43219 89.2338C2.6896 88.016 2.9672 86.8026 3.26487 85.5941L24.7524 90.9154C24.518 91.8682 24.2992 92.8247 24.096 93.7847L2.43219 89.2338Z" fill="#FDBE70" fill-opacity="0.4"/>
<path d="M3.3327 85.32C3.61185 84.1988 3.90824 83.082 4.22179 81.97L25.5201 88.0041C25.2736 88.8796 25.0403 89.7587 24.8202 90.6412L3.3327 85.32Z" fill="#FDBE70" fill-opacity="0.4"/>
<path d="M4.29877 81.6983C4.51736 80.9304 4.74412 80.1649 4.979 79.4019L26.1277 85.9411C25.9447 86.5364 25.7678 87.1335 25.5971 87.7324L4.29877 81.6983Z" fill="#FDBE70" fill-opacity="0.4"/>
<path d="M5.06244 79.1321C5.21982 78.6253 5.38079 78.1197 5.54533 77.6152L26.5822 84.5059C26.4559 84.8935 26.3322 85.282 26.2112 85.6713L5.06244 79.1321Z" fill="#FDBE70" fill-opacity="0.4"/>
<path d="M5.63324 77.3469C5.77116 76.9276 5.91154 76.5092 6.05438 76.0916L26.9907 83.2819C26.882 83.5999 26.7752 83.9184 26.6701 84.2376L5.63324 77.3469Z" fill="#FDBE70" fill-opacity="0.4"/>
<path d="M6.14612 75.8245C6.29001 75.4072 6.43635 74.9908 6.58514 74.5753L27.4166 82.0639C27.3035 82.3802 27.1921 82.6972 27.0824 83.0148L6.14612 75.8245Z" fill="#FDBE70" fill-opacity="0.4"/>
<path d="M6.6806 74.3095C6.80014 73.9783 6.92123 73.6476 7.04387 73.3176L27.7848 81.0535C27.6928 81.3013 27.6019 81.5495 27.5121 81.7981L6.6806 74.3095Z" fill="#FDBE70" fill-opacity="0.4"/>
<path d="M7.1402 73.0593C7.23394 72.8089 7.32857 72.5588 7.4241 72.3091L28.0904 80.2421C28.02 80.4263 27.9503 80.6107 27.8811 80.7953L7.1402 73.0593Z" fill="#FDBE70" fill-opacity="0.4"/>
<path d="M7.52045 72.0581C7.61657 71.8086 7.71358 71.5594 7.81148 71.3106L28.4013 79.44C28.3292 79.6235 28.2577 79.8072 28.1868 79.9912L7.52045 72.0581Z" fill="#FDBE70" fill-opacity="0.4"/>
<path d="M7.91022 71.0606C8.00871 70.812 8.10809 70.5637 8.20835 70.3159L28.7199 78.6409C28.646 78.8237 28.5728 79.0067 28.5001 79.19L7.91022 71.0606Z" fill="#FDBE70" fill-opacity="0.4"/>
<path d="M8.29675 70.0979C8.37234 69.9122 8.44842 69.7266 8.525 69.5413L28.9766 78.0126C28.9201 78.1492 28.864 78.286 28.8083 78.423L8.29675 70.0979Z" fill="#FDBE70" fill-opacity="0.4"/>
<path d="M8.60217 69.355C8.67908 69.1698 8.75649 68.9848 8.83439 68.8L29.225 77.4171C29.1675 77.5534 29.1105 77.6898 29.0537 77.8263L8.60217 69.355Z" fill="#FDBE70" fill-opacity="0.4"/>
<path d="M8.89978 68.6452C8.9519 68.5221 9.00424 68.3991 9.05679 68.2761L29.4061 76.9902C29.3674 77.0808 29.3288 77.1716 29.2903 77.2623L8.89978 68.6452Z" fill="#FDBE70" fill-opacity="0.4"/>
<path d="M9.09644 68.1835C9.12277 68.122 9.14915 68.0606 9.1756 67.9992L29.5041 76.7617C29.4846 76.807 29.4652 76.8522 29.4457 76.8975L9.09644 68.1835Z" fill="#FDBE70" fill-opacity="0.4"/>
<path d="M9.24487 67.8387C10.3769 65.2216 11.608 62.6484 12.9355 60.1248L32.5138 70.4553C31.4568 72.4662 30.4759 74.5163 29.5734 76.6012L9.24487 67.8387Z" fill="#FDBE70" fill-opacity="0.4"/>
<path d="M13.0673 59.8751C13.566 58.9328 14.0781 57.9976 14.6034 57.0699L33.8528 68.001C33.4402 68.7302 33.0378 69.4651 32.6456 70.2055L13.0673 59.8751Z" fill="#FDBE70" fill-opacity="0.4"/>
<path d="M14.7428 56.8243C15.2263 55.9755 15.7207 55.1329 16.2261 54.2969L35.1556 65.7733C34.7594 66.4291 34.3716 67.0899 33.9922 67.7555L14.7428 56.8243Z" fill="#FDBE70" fill-opacity="0.4"/>
<path d="M16.3726 54.0555C16.5555 53.7546 16.7398 53.4546 16.9256 53.1555L35.7171 64.8563C35.5777 65.0809 35.4394 65.3061 35.302 65.5319L16.3726 54.0555Z" fill="#FDBE70" fill-opacity="0.4"/>
<path d="M17.0748 52.9157C17.2613 52.6171 17.4492 52.3193 17.6385 52.0223L36.2895 63.9459C36.1474 64.1689 36.0064 64.3924 35.8663 64.6166L17.0748 52.9157Z" fill="#FDBE70" fill-opacity="0.4"/>
<path d="M17.787 51.7901C17.9313 51.565 18.0764 51.3404 18.2223 51.1163L36.7589 63.217C36.6513 63.3822 36.5444 63.5478 36.4379 63.7137L17.787 51.7901Z" fill="#FDBE70" fill-opacity="0.4"/>
<path d="M18.3692 50.8912C18.5156 50.6675 18.6629 50.4443 18.8109 50.2216L37.2314 62.4982C37.1224 62.6624 37.0138 62.8269 36.9058 62.9919L18.3692 50.8912Z" fill="#FDBE70" fill-opacity="0.4"/>
<path d="M18.96 49.9979C19.1085 49.7756 19.2579 49.5538 19.408 49.3325L37.7109 61.7839C37.6002 61.947 37.4901 62.1106 37.3805 62.2744L18.96 49.9979Z" fill="#FDBE70" fill-opacity="0.4"/>
<path d="M19.5403 49.138C19.6532 48.9723 19.7666 48.8069 19.8805 48.6418L38.0939 61.2235C38.01 61.3452 37.9264 61.4672 37.8431 61.5893L19.5403 49.138Z" fill="#FDBE70" fill-opacity="0.4"/>
<path d="M19.9951 48.4759C20.1092 48.311 20.2238 48.1464 20.3388 47.9821L38.4619 60.6935C38.3772 60.8147 38.2927 60.936 38.2085 61.0576L19.9951 48.4759Z" fill="#FDBE70" fill-opacity="0.4"/>
<path d="M20.4546 47.8171C20.5699 47.653 20.6856 47.4892 20.8018 47.3257L38.8338 60.1662C38.7481 60.2868 38.6628 60.4075 38.5778 60.5285L20.4546 47.8171Z" fill="#FDBE70" fill-opacity="0.4"/>
<path d="M20.9187 47.1615C21.0352 46.9982 21.1521 46.8353 21.2694 46.6727L39.2092 59.6416C39.1228 59.7615 39.0366 59.8816 38.9507 60.002L20.9187 47.1615Z" fill="#FDBE70" fill-opacity="0.4"/>
<path d="M21.3679 46.5365C21.4462 46.4282 21.5248 46.3201 21.6036 46.212L39.4815 59.2662C39.4234 59.3458 39.3655 59.4256 39.3077 59.5054L21.3679 46.5365Z" fill="#FDBE70" fill-opacity="0.4"/>
<path d="M21.663 46.1306C21.7025 46.0766 21.7419 46.0227 21.7815 45.9688L39.6282 59.0654C39.5991 59.1052 39.57 59.1449 39.5409 59.1847L21.663 46.1306Z" fill="#FDBE70" fill-opacity="0.4"/>
<path d="M21.8213 45.9146C21.8609 45.8607 21.9005 45.8069 21.9401 45.7531L39.7557 58.8922C39.7264 58.9318 39.6972 58.9715 39.668 59.0113L21.8213 45.9146Z" fill="#FDBE70" fill-opacity="0.4"/>
<path d="M21.98 45.699C22.0197 45.6452 22.0594 45.5914 22.0992 45.5377L39.8834 58.7192C39.8541 58.7588 39.8248 58.7984 39.7955 58.8381L21.98 45.699Z" fill="#FDBE70" fill-opacity="0.4"/>
<path d="M22.1392 45.4837C22.179 45.43 22.2189 45.3764 22.2588 45.3228L40.0116 58.5465C39.9822 58.5861 39.9528 58.6256 39.9234 58.6652L22.1392 45.4837Z" fill="#FDBE70" fill-opacity="0.4"/>
<path d="M22.3633 45.1826C23.2149 44.0423 24.0881 42.9183 24.9823 41.8112L42.1857 55.7423C41.4793 56.6173 40.7894 57.5055 40.1161 58.4064L22.3633 45.1826Z" fill="#FDBE70" fill-opacity="0.4"/>
<path d="M25.16 41.5918C25.9445 40.6255 26.745 39.6723 27.5611 38.7325L44.2563 53.2687C43.6132 54.0098 42.9821 54.7612 42.3634 55.5228L25.16 41.5918Z" fill="#FDBE70" fill-opacity="0.4"/>
<path d="M27.7465 38.5196C28.5063 37.6491 29.2795 36.7905 30.0657 35.9438L46.2674 51.0281C45.6487 51.6948 45.04 52.3707 44.4417 53.0558L27.7465 38.5196Z" fill="#FDBE70" fill-opacity="0.4"/>
<path d="M30.2582 35.7372C30.6811 35.2841 31.1078 34.8344 31.5382 34.3883L47.4498 49.7783C47.1171 50.1234 46.7871 50.4712 46.4599 50.8215L30.2582 35.7372Z" fill="#FDBE70" fill-opacity="0.4"/>
<path d="M31.7346 34.1853C32.1039 33.8044 32.476 33.426 32.8507 33.0504L48.5037 48.7033C48.2159 48.992 47.93 49.2827 47.6461 49.5753L31.7346 34.1853Z" fill="#FDBE70" fill-opacity="0.4"/>
<path d="M33.0504 32.8507C33.2997 32.602 33.5502 32.3545 33.8018 32.1082L49.2674 47.9463C49.0786 48.1313 48.8906 48.3171 48.7034 48.5037L33.0504 32.8507Z" fill="#FDBE70" fill-opacity="0.4"/>
<path d="M34.0038 31.9109C34.256 31.6652 34.5094 31.4207 34.764 31.1774L50.04 47.1985C49.849 47.3812 49.6588 47.5647 49.4694 47.7491L34.0038 31.9109Z" fill="#FDBE70" fill-opacity="0.4"/>
<path d="M34.9635 30.9872C35.1572 30.8029 35.3516 30.6193 35.5467 30.4364L50.6695 46.6021C50.5257 46.737 50.3824 46.8724 50.2395 47.0082L34.9635 30.9872Z" fill="#FDBE70" fill-opacity="0.4"/>
<path d="M35.7184 30.2757C35.865 30.1388 36.0119 30.0024 36.1592 29.8663L51.1662 46.1396C51.0576 46.2399 50.9493 46.3405 50.8412 46.4414L35.7184 30.2757Z" fill="#FDBE70" fill-opacity="0.4"/>
<path d="M36.2827 29.7523C36.3811 29.6618 36.4796 29.5714 36.5782 29.4811L51.5076 45.8257C51.4349 45.8922 51.3622 45.9589 51.2897 46.0256L36.2827 29.7523Z" fill="#FDBE70" fill-opacity="0.4"/>
<path d="M36.6775 29.3905C36.7763 29.3004 36.8752 29.2104 36.9743 29.1207L51.8257 45.5361C51.7526 45.6023 51.6797 45.6686 51.6069 45.735L36.6775 29.3905Z" fill="#FDBE70" fill-opacity="0.4"/>
<path d="M37.0739 29.0305C37.1731 28.9409 37.2725 28.8514 37.372 28.7621L52.1451 45.2481C52.0717 45.3139 51.9985 45.3799 51.9253 45.4459L37.0739 29.0305Z" fill="#FDBE70" fill-opacity="0.4"/>
<path d="M37.4721 28.6724C37.5717 28.5833 37.6715 28.4943 37.7714 28.4055L52.4659 44.9615C52.3922 45.027 52.3187 45.0926 52.2452 45.1583L37.4721 28.6724Z" fill="#FDBE70" fill-opacity="0.4"/>
<path d="M37.8468 28.3386C37.8968 28.2942 37.9469 28.2499 37.9969 28.2056L52.652 44.7966C52.615 44.8292 52.5781 44.8619 52.5413 44.8946L37.8468 28.3386Z" fill="#FDBE70" fill-opacity="0.4"/>
<path d="M38.0473 28.1611C38.0974 28.1168 38.1476 28.0727 38.1978 28.0285L52.8132 44.6543C52.7762 44.6869 52.7393 44.7194 52.7023 44.7521L38.0473 28.1611Z" fill="#FDBE70" fill-opacity="0.4"/>
<path d="M38.2482 27.9842C38.2984 27.94 38.3487 27.896 38.399 27.8519L52.9749 44.5125C52.9378 44.5449 52.9007 44.5774 52.8637 44.61L38.2482 27.9842Z" fill="#FDBE70" fill-opacity="0.4"/>
<path d="M38.4496 27.8077C38.5 27.7637 38.5503 27.7197 38.6007 27.6758L53.1369 44.371C53.0998 44.4033 53.0626 44.4358 53.0255 44.4682L38.4496 27.8077Z" fill="#FDBE70" fill-opacity="0.4"/>
<path d="M38.6514 27.6317C38.7019 27.5878 38.7523 27.544 38.8028 27.5002L53.2992 44.2299C53.262 44.2622 53.2248 44.2945 53.1876 44.3269L38.6514 27.6317Z" fill="#FDBE70" fill-opacity="0.4"/>
<path d="M38.9349 27.3858C39.3364 27.0388 39.7403 26.6947 40.1466 26.3534L54.3623 43.3223C54.0502 43.5846 53.7399 43.849 53.4313 44.1155L38.9349 27.3858Z" fill="#FDBE70" fill-opacity="0.4"/>
<path d="M40.3631 26.172C40.7018 25.889 41.0421 25.608 41.3841 25.329L55.3561 42.4992C55.0958 42.7116 54.8367 42.9256 54.5788 43.141L40.3631 26.172Z" fill="#FDBE70" fill-opacity="0.4"/>
<path d="M41.5718 25.1762C41.7274 25.0498 41.8834 24.9238 42.0398 24.7982L55.8888 42.0677C55.7735 42.1603 55.6585 42.2532 55.5437 42.3464L41.5718 25.1762Z" fill="#FDBE70" fill-opacity="0.4"/>
<path d="M42.1971 24.672C42.3536 24.5467 42.5105 24.4218 42.6678 24.2973L56.3931 41.6652C56.2772 41.757 56.1615 41.8491 56.0461 41.9415L42.1971 24.672Z" fill="#FDBE70" fill-opacity="0.4"/>
<path d="M42.7996 24.1931C42.9046 24.1103 43.0097 24.0276 43.1149 23.9452L56.7574 41.3783C56.6798 41.4391 56.6023 41.5 56.5249 41.5611L42.7996 24.1931Z" fill="#FDBE70" fill-opacity="0.4"/>
<path d="M43.2208 23.8623C43.3261 23.78 43.4316 23.6979 43.5372 23.6159L57.0966 41.1137C57.0187 41.1742 56.9409 41.2347 56.8633 41.2954L43.2208 23.8623Z" fill="#FDBE70" fill-opacity="0.4"/>
<path d="M43.6434 23.5336C43.7492 23.4517 43.855 23.3701 43.9611 23.2886L57.437 40.8508C57.3588 40.9109 57.2808 40.9711 57.2028 41.0314L43.6434 23.5336Z" fill="#FDBE70" fill-opacity="0.4"/>
<path d="M44.0677 23.2068C44.1738 23.1255 44.2801 23.0444 44.3865 22.9634L57.7786 40.5895C57.7002 40.6492 57.6219 40.7091 57.5436 40.769L44.0677 23.2068Z" fill="#FDBE70" fill-opacity="0.4"/>
<path d="M44.4667 22.9024C44.52 22.862 44.5733 22.8216 44.6266 22.7813L57.9767 40.4392C57.9374 40.469 57.8982 40.4987 57.8589 40.5285L44.4667 22.9024Z" fill="#FDBE70" fill-opacity="0.4"/>
<path d="M44.6802 22.7407C44.7335 22.7005 44.7869 22.6602 44.8403 22.62L58.1484 40.3096C58.109 40.3393 58.0697 40.369 58.0304 40.3987L44.6802 22.7407Z" fill="#FDBE70" fill-opacity="0.4"/>
<path d="M44.894 22.5796C44.9474 22.5394 45.0009 22.4993 45.0544 22.4592L58.3204 40.1805C58.2809 40.21 58.2415 40.2396 58.2021 40.2692L44.894 22.5796Z" fill="#FDBE70" fill-opacity="0.4"/>
<path d="M45.1082 22.4189C45.1617 22.3789 45.2152 22.3389 45.2688 22.299L58.4926 40.0517C58.4531 40.0812 58.4136 40.1107 58.3741 40.1402L45.1082 22.4189Z" fill="#FDBE70" fill-opacity="0.4"/>
<path d="M45.4037 22.1987C45.6183 22.0392 45.8335 21.8805 46.0493 21.7225L59.1034 39.6004C58.9444 39.7169 58.7857 39.8339 58.6275 39.9515L45.4037 22.1987Z" fill="#FDBE70" fill-opacity="0.4"/>
<path d="M46.2392 21.5838C46.4013 21.4656 46.5636 21.348 46.7263 21.2307L59.6525 39.2014C59.5326 39.2878 59.4129 39.3746 59.2934 39.4616L46.2392 21.5838Z" fill="#FDBE70" fill-opacity="0.4"/>
<path d="M46.89 21.113C47.0529 20.996 47.2161 20.8795 47.3797 20.7634L60.1772 38.8259C60.0567 38.9115 59.9363 38.9974 59.8162 39.0836L46.89 21.113Z" fill="#FDBE70" fill-opacity="0.4"/>
<path d="M47.5167 20.6663C47.6259 20.589 47.7351 20.512 47.8445 20.4352L60.556 38.5584C60.4753 38.615 60.3947 38.6718 60.3143 38.7287L47.5167 20.6663Z" fill="#FDBE70" fill-opacity="0.4"/>
<path d="M47.9546 20.358C48.0641 20.2813 48.1737 20.2048 48.2835 20.1285L60.9085 38.312C60.8276 38.3682 60.7468 38.4246 60.666 38.4812L47.9546 20.358Z" fill="#FDBE70" fill-opacity="0.4"/>
<path d="M48.3663 20.071C48.4213 20.0329 48.4762 19.9949 48.5312 19.9568L61.1129 38.1703C61.0724 38.1983 61.0318 38.2264 60.9913 38.2545L48.3663 20.071Z" fill="#FDBE70" fill-opacity="0.4"/>
<path d="M48.5865 19.9186C48.6415 19.8806 48.6965 19.8427 48.7516 19.8048L61.2899 38.0482C61.2493 38.0761 61.2087 38.1041 61.1682 38.1321L48.5865 19.9186Z" fill="#FDBE70" fill-opacity="0.4"/>
<path d="M48.807 19.7668C48.8621 19.7289 48.9172 19.6911 48.9724 19.6534L61.4673 37.9265C61.4266 37.9544 61.3859 37.9822 61.3453 38.0101L48.807 19.7668Z" fill="#FDBE70" fill-opacity="0.4"/>
<path d="M49.0279 19.6154C49.0831 19.5777 49.1383 19.5401 49.1936 19.5024L61.6449 37.8053C61.6042 37.833 61.5634 37.8608 61.5228 37.8886L49.0279 19.6154Z" fill="#FDBE70" fill-opacity="0.4"/>
<path d="M49.2491 19.4647C49.3044 19.4271 49.3597 19.3895 49.4151 19.3521L61.8228 37.6845C61.782 37.7121 61.7412 37.7398 61.7005 37.7675L49.2491 19.4647Z" fill="#FDBE70" fill-opacity="0.4"/>
<path d="M49.4708 19.3144C49.5261 19.2769 49.5815 19.2395 49.637 19.2021L62.001 37.564C61.9602 37.5916 61.9193 37.6192 61.8785 37.6468L49.4708 19.3144Z" fill="#FDBE70" fill-opacity="0.4"/>
<path d="M49.7206 19.1459C49.8315 19.0713 49.9426 18.9969 50.0538 18.9227L62.3303 37.3432C62.2484 37.3979 62.1665 37.4528 62.0847 37.5078L49.7206 19.1459Z" fill="#FDBE70" fill-opacity="0.4"/>
<path d="M50.1656 18.8481C50.2769 18.774 50.3884 18.7001 50.4999 18.6265L62.6886 37.1052C62.6064 37.1596 62.5242 37.214 62.4422 37.2686L50.1656 18.8481Z" fill="#FDBE70" fill-opacity="0.4"/>
<path d="M50.6121 18.5524C50.7238 18.4789 50.8355 18.4055 50.9475 18.3324L63.0481 36.869C62.9656 36.9229 62.8832 36.977 62.8008 37.0312L50.6121 18.5524Z" fill="#FDBE70" fill-opacity="0.4"/>
<path d="M51.0601 18.2589C51.1721 18.1859 51.2842 18.1131 51.3964 18.0405L63.4087 36.6344C63.3259 36.688 63.2433 36.7417 63.1607 36.7955L51.0601 18.2589Z" fill="#FDBE70" fill-opacity="0.4"/>
<path d="M51.4811 17.9858C51.5372 17.9495 51.5934 17.9133 51.6497 17.8771L63.6176 36.4996C63.5762 36.5263 63.5347 36.553 63.4933 36.5797L51.4811 17.9858Z" fill="#FDBE70" fill-opacity="0.4"/>
<path d="M51.7062 17.8408C51.7624 17.8047 51.8187 17.7686 51.875 17.7326L63.7986 36.3835C63.7571 36.4101 63.7156 36.4367 63.6741 36.4633L51.7062 17.8408Z" fill="#FDBE70" fill-opacity="0.4"/>
<path d="M51.9316 17.6964C51.988 17.6604 52.0443 17.6245 52.1007 17.5886L63.9799 36.2678C63.9383 36.2943 63.8968 36.3208 63.8552 36.3473L51.9316 17.6964Z" fill="#FDBE70" fill-opacity="0.4"/>
<path d="M52.1575 17.5525C52.2139 17.5166 52.2703 17.4808 52.3268 17.4451L64.1615 36.1525C64.1199 36.1789 64.0782 36.2053 64.0366 36.2317L52.1575 17.5525Z" fill="#FDBE70" fill-opacity="0.4"/>
<path d="M52.3836 17.4091C52.4401 17.3734 52.4966 17.3377 52.5532 17.3021L64.3433 36.0377C64.3016 36.064 64.26 36.0903 64.2183 36.1166L52.3836 17.4091Z" fill="#FDBE70" fill-opacity="0.4"/>
<path d="M52.6101 17.2663C52.6667 17.2308 52.7233 17.1952 52.78 17.1597L64.5255 35.9233C64.4837 35.9495 64.442 35.9757 64.4002 36.0019L52.6101 17.2663Z" fill="#FDBE70" fill-opacity="0.4"/>
<path d="M52.8369 17.1241C52.8936 17.0886 52.9503 17.0532 53.007 17.0179L64.7078 35.8094C64.666 35.8354 64.6242 35.8616 64.5824 35.8877L52.8369 17.1241Z" fill="#FDBE70" fill-opacity="0.4"/>
<path d="M53.1555 16.9255C54.5162 16.0807 55.8948 15.2649 57.2903 14.4789L68.1297 33.7801C67.0251 34.4027 65.9337 35.0485 64.8563 35.7171L53.1555 16.9255Z" fill="#FBF8B0" fill-opacity="0.4"/>
<path d="M57.5365 14.3406C58.7004 13.6889 59.8757 13.058 61.062 12.4481L71.1588 32.148C70.2225 32.6297 69.2948 33.1277 68.3759 33.6418L57.5365 14.3406Z" fill="#FBF8B0" fill-opacity="0.4"/>
<path d="M61.3134 12.3193C62.2627 11.8342 63.219 11.3626 64.1818 10.9047L73.6643 30.9075C72.9078 31.2676 72.1563 31.6382 71.4101 32.0192L61.3134 12.3193Z" fill="#FBF8B0" fill-opacity="0.4"/>
<path d="M64.437 10.7838C65.1588 10.4427 65.8843 10.1093 66.6132 9.78363L75.617 30.0065C75.0485 30.2606 74.4826 30.5207 73.9194 30.7866L64.437 10.7838Z" fill="#FBF8B0" fill-opacity="0.4"/>
<path d="M66.8712 9.66876C67.2746 9.48975 67.6791 9.31311 68.0846 9.13885L76.7987 29.4882C76.49 29.6209 76.1821 29.7554 75.8749 29.8916L66.8712 9.66876Z" fill="#FBF8B0" fill-opacity="0.4"/>
<path d="M68.3442 9.02767C68.6681 8.88946 68.9926 8.75277 69.3178 8.61761L77.7891 29.0692C77.545 29.1707 77.3015 29.2733 77.0583 29.377L68.3442 9.02767Z" fill="#FBF8B0" fill-opacity="0.4"/>
<path d="M69.5413 8.525C69.7267 8.44842 69.9122 8.37234 70.098 8.29675L78.423 28.8083C78.2861 28.864 78.1493 28.9201 78.0126 28.9766L69.5413 8.525Z" fill="#FBF8B0" fill-opacity="0.4"/>
<path d="M70.2536 8.23357C70.3775 8.18337 70.5015 8.13338 70.6256 8.08362L78.8529 28.6345C78.7615 28.6712 78.67 28.7081 78.5787 28.7451L70.2536 8.23357Z" fill="#FBF8B0" fill-opacity="0.4"/>
<path d="M70.7504 8.03362C70.8745 7.984 70.9987 7.93461 71.1231 7.88544L79.2525 28.4753C79.1608 28.5116 79.0693 28.548 78.9777 28.5845L70.7504 8.03362Z" fill="#FBF8B0" fill-opacity="0.4"/>
<path d="M71.2482 7.8361C71.3726 7.78707 71.497 7.73828 71.6216 7.6897L79.6529 28.318C79.5611 28.3538 79.4693 28.3898 79.3776 28.426L71.2482 7.8361Z" fill="#FBF8B0" fill-opacity="0.4"/>
<path d="M71.7468 7.6409C71.8714 7.59247 71.9961 7.54426 72.1209 7.49628L80.054 28.1626C79.962 28.198 79.87 28.2335 79.7782 28.2692L71.7468 7.6409Z" fill="#FBF8B0" fill-opacity="0.4"/>
<path d="M72.2464 7.44808C72.3712 7.40024 72.4962 7.35263 72.6212 7.30524L80.4558 28.0091C80.3636 28.044 80.2715 28.0791 80.1795 28.1144L72.2464 7.44808Z" fill="#FBF8B0" fill-opacity="0.4"/>
<path d="M72.7155 7.26961C72.778 7.24597 72.8405 7.22238 72.9031 7.19885L80.6884 27.9213C80.6423 27.9386 80.5961 27.956 80.55 27.9734L72.7155 7.26961Z" fill="#FBF8B0" fill-opacity="0.4"/>
<path d="M72.966 7.17522C73.0286 7.15173 73.0912 7.1283 73.1538 7.10492L80.8898 27.8458C80.8436 27.863 80.7974 27.8803 80.7513 27.8976L72.966 7.17522Z" fill="#FBF8B0" fill-opacity="0.4"/>
<path d="M73.3176 7.04389C73.7314 6.89016 74.146 6.73887 74.5615 6.59003L82.0005 27.4393C81.6842 27.5527 81.3686 27.6679 81.0536 27.7848L73.3176 7.04389Z" fill="#FBF8B0" fill-opacity="0.4"/>
<path d="M74.8211 6.49741C75.0731 6.40786 75.3253 6.3192 75.5779 6.23145L82.8181 27.1506C82.6319 27.2153 82.4459 27.2807 82.2601 27.3467L74.8211 6.49741Z" fill="#FBF8B0" fill-opacity="0.4"/>
<path d="M75.8319 6.14352C76.0847 6.05637 76.3378 5.97011 76.5912 5.88477L83.6319 26.8719C83.4451 26.9349 83.2585 26.9984 83.0721 27.0626L75.8319 6.14352Z" fill="#FBF8B0" fill-opacity="0.4"/>
<path d="M76.8142 5.80992C77.0044 5.7463 77.1947 5.6832 77.3853 5.62061L84.276 26.6574C84.1355 26.7036 83.9951 26.7501 83.8549 26.797L76.8142 5.80992Z" fill="#FBF8B0" fill-opacity="0.4"/>
<path d="M77.5449 5.56828C77.672 5.52674 77.7991 5.48542 77.9264 5.44434L84.7168 26.5137C84.623 26.544 84.5293 26.5745 84.4356 26.6051L77.5449 5.56828Z" fill="#FBF8B0" fill-opacity="0.4"/>
<path d="M78.0543 5.40313C78.1816 5.3622 78.3089 5.32149 78.4364 5.28101L85.1265 26.3825C85.0325 26.4123 84.9386 26.4424 84.8448 26.4725L78.0543 5.40313Z" fill="#FBF8B0" fill-opacity="0.4"/>
<path d="M78.5645 5.24036C78.692 5.20003 78.8195 5.15993 78.9471 5.12006L85.5367 26.2531C85.4426 26.2826 85.3486 26.3121 85.2546 26.3418L78.5645 5.24036Z" fill="#FBF8B0" fill-opacity="0.4"/>
<path d="M79.0754 5.08003C79.2031 5.04031 79.3308 5.00081 79.4586 4.96155L85.9475 26.1258C85.8533 26.1547 85.7591 26.1838 85.665 26.2131L79.0754 5.08003Z" fill="#FBF8B0" fill-opacity="0.4"/>
<path d="M79.5872 4.92214C79.715 4.88303 79.8429 4.84414 79.9709 4.80548L86.359 26.0003C86.2646 26.0289 86.1703 26.0575 86.0761 26.0863L79.5872 4.92214Z" fill="#FBF8B0" fill-opacity="0.4"/>
<path d="M80.0674 4.77639C80.1314 4.75712 80.1954 4.73791 80.2595 4.71875L86.5971 25.9287C86.5499 25.9429 86.5027 25.957 86.4555 25.9712L80.0674 4.77639Z" fill="#FBF8B0" fill-opacity="0.4"/>
<path d="M80.3239 4.69952C80.3879 4.6804 80.452 4.66134 80.5161 4.64233L86.8032 25.8674C86.756 25.8814 86.7087 25.8954 86.6615 25.9095L80.3239 4.69952Z" fill="#FBF8B0" fill-opacity="0.4"/>
<path d="M80.5805 4.62319C80.6446 4.60423 80.7087 4.58532 80.7729 4.56647L87.0095 25.8064C86.9622 25.8203 86.9149 25.8342 86.8676 25.8482L80.5805 4.62319Z" fill="#FBF8B0" fill-opacity="0.4"/>
<path d="M80.8373 4.54754C80.9015 4.52873 80.9656 4.50997 81.0298 4.49127L87.2159 25.746C87.1685 25.7598 87.1212 25.7736 87.0739 25.7875L80.8373 4.54754Z" fill="#FBF8B0" fill-opacity="0.4"/>
<path d="M81.1912 4.44443C81.448 4.37002 81.7051 4.29652 81.9624 4.22394L87.9458 25.5366C87.7561 25.5902 87.5666 25.6443 87.3772 25.6992L81.1912 4.44443Z" fill="#FBF8B0" fill-opacity="0.4"/>
<path d="M82.1566 4.16938C82.2853 4.13332 82.4141 4.09749 82.543 4.06189L88.4249 25.4028C88.3299 25.429 88.2349 25.4554 88.14 25.482L82.1566 4.16938Z" fill="#FBF8B0" fill-opacity="0.4"/>
<path d="M82.6401 4.03511C82.7046 4.01736 82.7691 3.99968 82.8335 3.98206L88.6646 25.3369C88.6171 25.3499 88.5696 25.3629 88.522 25.376L82.6401 4.03511Z" fill="#FBF8B0" fill-opacity="0.4"/>
<path d="M82.8984 3.96434C82.9629 3.94675 83.0274 3.92922 83.0919 3.91174L88.8721 25.2804C88.8246 25.2933 88.777 25.3062 88.7295 25.3192L82.8984 3.96434Z" fill="#FBF8B0" fill-opacity="0.4"/>
<path d="M83.1567 3.89417C83.2213 3.87673 83.2858 3.85936 83.3504 3.84204L89.0798 25.2244C89.0322 25.2371 88.9846 25.25 88.937 25.2628L83.1567 3.89417Z" fill="#FBF8B0" fill-opacity="0.4"/>
<path d="M83.4153 3.82462C83.4799 3.80734 83.5445 3.79012 83.6091 3.77295L89.2876 25.1689C89.24 25.1815 89.1923 25.1942 89.1447 25.2069L83.4153 3.82462Z" fill="#FBF8B0" fill-opacity="0.4"/>
<path d="M83.6741 3.75574C83.7387 3.73861 83.8033 3.72154 83.868 3.70453L89.4955 25.1139C89.4478 25.1264 89.4002 25.139 89.3525 25.1516L83.6741 3.75574Z" fill="#FBF8B0" fill-opacity="0.4"/>
<path d="M83.9655 3.67892C84.0948 3.64501 84.2242 3.61133 84.3536 3.57788L89.8792 25.0138C89.7837 25.0385 89.6883 25.0633 89.593 25.0883L83.9655 3.67892Z" fill="#FBF8B0" fill-opacity="0.4"/>
<path d="M84.4512 3.55264C84.516 3.53597 84.5807 3.51936 84.6455 3.50281L90.12 24.9518C90.0723 24.964 90.0245 24.9763 89.9768 24.9885L84.4512 3.55264Z" fill="#FBF8B0" fill-opacity="0.4"/>
<path d="M84.7106 3.48619C84.7753 3.46968 84.8401 3.45323 84.9049 3.43683L90.3284 24.8988C90.2806 24.9109 90.2329 24.923 90.1851 24.9352L84.7106 3.48619Z" fill="#FBF8B0" fill-opacity="0.4"/>
<path d="M84.9702 3.42043C85.035 3.40407 85.0998 3.38776 85.1646 3.37152L90.537 24.8463C90.4892 24.8583 90.4414 24.8703 90.3936 24.8824L84.9702 3.42043Z" fill="#FBF8B0" fill-opacity="0.4"/>
<path d="M85.2298 3.3552C85.2947 3.33899 85.3595 3.32285 85.4244 3.30676L90.7456 24.7943C90.6978 24.8062 90.65 24.8181 90.6022 24.83L85.2298 3.3552Z" fill="#FBF8B0" fill-opacity="0.4"/>
<path d="M85.4896 3.29059C85.5545 3.27454 85.6194 3.25855 85.6843 3.24261L90.9544 24.7427C90.9066 24.7545 90.8587 24.7663 90.8109 24.7781L85.4896 3.29059Z" fill="#FBF8B0" fill-opacity="0.4"/>
<path d="M85.7823 3.21864C85.9122 3.18689 86.0421 3.15537 86.1721 3.12408L91.3398 24.6491C91.2439 24.6721 91.1481 24.6954 91.0524 24.7188L85.7823 3.21864Z" fill="#FBF8B0" fill-opacity="0.4"/>
<path d="M86.2701 3.10054C86.3351 3.08495 86.4001 3.06942 86.4651 3.05396L91.5816 24.5912C91.5336 24.6026 91.4857 24.614 91.4378 24.6255L86.2701 3.10054Z" fill="#FBF8B0" fill-opacity="0.4"/>
<path d="M86.5305 3.03843C86.5956 3.023 86.6606 3.00762 86.7257 2.99231L91.7909 24.5416C91.7429 24.5529 91.6949 24.5643 91.647 24.5756L86.5305 3.03843Z" fill="#FBF8B0" fill-opacity="0.4"/>
<path d="M86.8959 2.9524C94.9818 1.06251 103.252 0.0736773 111.556 0.00396729L111.714 22.14C105.063 22.1979 98.4383 22.99 91.9611 24.5018L86.8959 2.9524Z" fill="#BEE5A0" fill-opacity="0.4"/>
<path d="M111.73 0.00259597C111.797 0.00213865 111.864 0.00174197 111.931 0.00140381L112.036 22.1378C111.987 22.138 111.938 22.1383 111.888 22.1386L111.73 0.00259597Z" fill="#BEE5A0" fill-opacity="0.4"/>
<path d="M112.032 0.000956498C112.165 0.000399984 112.299 7.98693e-05 112.433 0V22.1366C112.334 22.1367 112.236 22.1369 112.137 22.1373L112.032 0.000956498Z" fill="#56ADAE" fill-opacity="0.4"/>
<g filter="url(#filter0_d)">
<circle cx="113" cy="112" r="47" fill="white"/>
</g>
<path d="M91 111.73C91 109.763 91.5933 108.288 92.78 107.305C93.9667 106.223 95.6479 105.731 97.7246 105.731C99.0102 105.731 100.098 105.928 100.988 106.321C101.779 106.715 102.274 107.206 102.274 107.993C102.274 108.386 102.175 108.681 101.977 108.977C101.779 109.272 101.581 109.567 101.483 109.567C101.087 109.37 100.691 109.272 100.197 109.075C99.7025 108.977 99.1091 108.878 98.4169 108.878C95.9446 108.878 94.7579 110.157 94.7579 112.714V121.762H91.1978C91 121.86 91 111.73 91 111.73ZM114.536 117.139H108.504C106.823 117.139 105.636 116.844 104.746 116.352C103.856 115.762 103.46 114.877 103.46 113.697C103.46 112.812 103.658 111.829 104.054 110.845C104.449 109.862 104.944 108.878 105.636 107.895C106.328 106.911 107.02 106.026 107.91 105.043C108.8 104.158 109.691 103.371 110.581 102.682C111.471 101.994 112.459 101.502 113.35 101.01C114.24 100.617 115.13 100.42 115.822 100.42C116.514 100.42 117.107 100.519 117.503 100.617C117.899 100.814 118.096 100.912 118.195 100.912V113.894H119.184C120.47 113.894 121.063 114.386 121.063 115.467C121.063 115.861 120.964 116.254 120.865 116.549C120.766 116.844 120.667 117.041 120.569 117.139H118.195V121.86H114.635L114.536 117.139ZM114.536 113.894V104.059C113.844 104.453 113.053 104.944 112.163 105.633C111.273 106.321 110.482 107.108 109.789 107.895C109.097 108.681 108.405 109.567 107.91 110.452C107.416 111.337 107.218 112.025 107.218 112.714C107.218 113.205 107.416 113.599 107.812 113.697C108.207 113.795 108.702 113.894 109.295 113.894H114.536ZM122.616 118.759C122.911 118.562 123.405 118.268 123.996 117.777L126.067 116.304C126.856 115.714 127.547 115.223 128.335 114.634C129.124 114.045 129.716 113.554 130.209 113.062C131.393 111.982 132.379 111 132.97 110.018C133.661 109.036 133.957 108.054 133.957 106.875C133.957 106.384 133.858 105.893 133.661 105.5C133.464 105.009 133.168 104.616 132.872 104.321C132.477 103.929 132.083 103.732 131.491 103.437C130.9 103.241 130.209 103.143 129.42 103.143C128.631 103.143 127.941 103.241 127.349 103.437C126.758 103.634 126.264 103.929 125.87 104.223C125.476 104.518 125.18 104.812 124.982 105.205C124.785 105.5 124.588 105.795 124.489 105.991C124.292 105.991 124.095 105.893 123.898 105.795C123.7 105.696 123.503 105.598 123.306 105.402C123.109 105.205 122.911 105.009 122.813 104.812C122.714 104.616 122.616 104.321 122.616 104.125C122.616 103.83 122.714 103.536 122.813 103.241C122.911 102.946 123.109 102.75 123.207 102.455C123.306 102.357 123.503 102.063 123.799 101.768C124.095 101.473 124.489 101.179 125.081 100.982C125.574 100.687 126.264 100.491 127.053 100.295C127.842 100.098 128.73 100 129.815 100C131.097 100 132.28 100.196 133.266 100.491C134.253 100.884 135.14 101.277 135.83 101.866C136.521 102.455 137.014 103.143 137.408 104.027C137.803 104.813 137.901 105.696 137.901 106.679C137.901 107.366 137.803 108.054 137.606 108.741C137.408 109.429 137.211 109.92 136.915 110.509C136.619 111.098 136.323 111.491 136.028 111.982C135.633 112.473 135.337 112.866 134.943 113.259C134.548 113.652 134.055 114.143 133.464 114.634C132.872 115.223 132.182 115.714 131.491 116.304C130.801 116.893 130.209 117.384 129.617 117.777C129.026 118.268 128.533 118.562 128.237 118.759H138V122H122.616V118.759Z" fill="#ABAF2C"/>
<defs>
<filter id="filter0_d" x="64" y="63" width="102" height="102" filterUnits="userSpaceOnUse" color-interpolation-filters="sRGB">
<feFlood flood-opacity="0" result="BackgroundImageFix"/>
<feColorMatrix in="SourceAlpha" type="matrix" values="0 0 0 0 0 0 0 0 0 0 0 0 0 0 0 0 0 0 127 0"/>
<feOffset dx="2" dy="2"/>
<feGaussianBlur stdDeviation="2"/>
<feColorMatrix type="matrix" values="0 0 0 0 0 0 0 0 0 0 0 0 0 0 0 0 0 0 0.25 0"/>
<feBlend mode="normal" in2="BackgroundImageFix" result="effect1_dropShadow"/>
<feBlend mode="normal" in="SourceGraphic" in2="effect1_dropShadow" result="shape"/>
</filter>
</defs>
</svg>
